<svg viewBox="0 0 24 24" focusable="false" role="presentation">
  <path d="M20.5,17c-0.091,0-0.182,0.005-0.271,0.013C19.396,15.763,17.997,15,16.5,15c-2.328,0-4.249,1.777-4.477,4.046
  	C10.872,19.269,10,20.285,10,21.5c0,1.378,1.122,2.5,2.5,2.5h8c1.93,0,3.5-1.57,3.5-3.5S22.43,17,20.5,17z M20.5,23h-8
  	c-0.827,0-1.5-0.673-1.5-1.5c0-0.827,0.673-1.5,1.5-1.5c0.276,0,0.5-0.224,0.5-0.5c0-1.93,1.57-3.5,3.5-3.5
  	c1.25,0,2.415,0.689,3.038,1.798c0.104,0.185,0.311,0.283,0.524,0.247C20.205,18.02,20.35,18,20.5,18c1.378,0,2.5,1.122,2.5,2.5
  	S21.878,23,20.5,23z M10.366,18.5c0.002-0.276-0.221-0.502-0.497-0.503C4.564,17.966,1,16.164,1,14.5v-3.018
  	C2.603,12.984,5.985,14,10,14s7.397-1.016,9-2.518v2.835c0,0.276,0.224,0.5,0.5,0.5s0.5-0.224,0.5-0.5V4.5C20,1.977,15.607,0,10,0
  	S0,1.977,0,4.5v15c0,2.376,3.795,4.26,9.025,4.479h0.021c0.266,0,0.488-0.21,0.499-0.478c0.011-0.276-0.203-0.509-0.479-0.521
  	C4.084,22.771,1,21.011,1,19.5v-2.992c1.572,1.478,4.863,2.466,8.863,2.489h0.003C10.141,18.997,10.365,18.775,10.366,18.5z M10,1
  	c5.304,0,9,1.845,9,3.5C19,6.155,15.304,8,10,8S1,6.155,1,4.5C1,2.845,4.696,1,10,1z M1,6.482C2.603,7.984,5.985,9,10,9
  	s7.397-1.016,9-2.518V9.5c0,1.655-3.696,3.5-9,3.5s-9-1.845-9-3.5V6.482z" fill="currentColor" />
</svg>