<svg viewBox="0 0 24 24" focusable="false" role="presentation">
  <path fill="currentColor" d="M7.01,15c0.128,0,0.256-0.049,0.353-0.146c0.195-0.195,0.195-0.512,0-0.707l-2-2c-0.195-0.195-0.512-0.195-0.707,0
    s-0.195,0.512,0,0.707l2,2C6.754,14.951,6.882,15,7.01,15z M11.012,10.499c0-1.254-0.849-2.341-2.065-2.645L7.446,7.479
    L7.383,7.228c0.389-0.43,0.666-0.979,0.781-1.549c0.267-0.138,0.46-0.4,0.5-0.715l0.108-0.87c0.033-0.264-0.048-0.53-0.223-0.73
    c-0.054-0.061-0.116-0.115-0.182-0.16l0.025-0.531l0.091-0.091C8.741,2.308,9.09,1.723,8.538,0.879C8.276,0.478,7.736,0,6.654,0
    C6.335,0,5.616,0,4.918,0.437c-2.058,0.073-2.3,1.182-2.3,2.019c0,0.165,0.03,0.474,0.058,0.732
    C2.602,3.235,2.534,3.293,2.475,3.36c-0.178,0.202-0.26,0.469-0.226,0.734l0.108,0.87C2.398,5.29,2.605,5.56,2.91,5.693
    c0.112,0.545,0.374,1.073,0.739,1.492L3.576,7.479L2.075,7.854C0.86,8.158,0.01,9.246,0.01,10.5c0,0.133,0.052,0.261,0.146,0.354
    S0.377,11,0.51,11l10.002-0.001C10.788,10.999,11.012,10.775,11.012,10.499z M1.083,9.999c0.172-0.57,0.633-1.024,1.237-1.176
    l1.792-0.448C4.291,8.33,4.431,8.19,4.476,8.011l0.213-0.853c0.044-0.176-0.011-0.362-0.144-0.486
    C4.156,6.306,3.898,5.771,3.856,5.241C3.835,4.982,3.613,4.838,3.352,4.838L3.223,4.042c0.144,0,0.28-0.061,0.375-0.169
    c0.095-0.107,0.139-0.25,0.121-0.393C3.681,3.178,3.62,2.632,3.62,2.456c0-0.518,0-1.007,1.462-1.022
    c0.102-0.001,0.202-0.033,0.286-0.093C5.844,1,6.392,1,6.655,1c0.517,0,0.859,0.139,1.047,0.426
    c0.203,0.311,0.12,0.399,0.064,0.46L7.549,2.103c-0.088,0.088-0.14,0.205-0.146,0.329L7.35,3.52
    C7.344,3.656,7.36,3.751,7.453,3.85c0.094,0.099,0.19,0.119,0.326,0.12L7.715,4.783c-0.261,0-0.477,0.2-0.498,0.46
    C7.173,5.782,6.896,6.341,6.494,6.702C6.357,6.825,6.298,7.015,6.343,7.195l0.204,0.817c0.045,0.179,0.184,0.32,0.364,0.364
    l1.792,0.448C9.305,8.975,9.765,9.429,9.937,10L1.083,9.999z M21.925,7.852l-1.501-0.375l-0.063-0.251
    c0.389-0.43,0.666-0.978,0.78-1.548c0.267-0.137,0.461-0.4,0.501-0.715l0.108-0.87c0.033-0.263-0.048-0.529-0.223-0.729
    c-0.055-0.062-0.117-0.116-0.183-0.161l0.025-0.53l0.092-0.092c0.258-0.274,0.607-0.859,0.054-1.703
    C21.252,0.478,20.713,0,19.632,0c-0.318,0-1.037,0-1.735,0.437c-2.058,0.073-2.3,1.182-2.3,2.019c0,0.165,0.03,0.474,0.058,0.732
    c-0.074,0.047-0.141,0.104-0.2,0.171c-0.178,0.2-0.261,0.468-0.228,0.735l0.109,0.87c0.041,0.326,0.248,0.596,0.553,0.729
    c0.112,0.545,0.373,1.073,0.738,1.492l-0.073,0.294l-1.501,0.375c-1.215,0.304-2.064,1.392-2.064,2.646
    c0,0.133,0.052,0.261,0.146,0.354S13.356,11,13.489,11l10.001-0.003c0.276,0,0.5-0.224,0.5-0.5
    C23.99,9.243,23.141,8.156,21.925,7.852z M14.062,9.999c0.172-0.57,0.632-1.024,1.234-1.176l1.792-0.448
    c0.179-0.044,0.319-0.184,0.364-0.363l0.214-0.853c0.044-0.176-0.011-0.362-0.144-0.486c-0.389-0.365-0.646-0.9-0.689-1.431
    c-0.021-0.26-0.243-0.404-0.504-0.404L16.2,4.042c0.144,0,0.28-0.061,0.375-0.169c0.095-0.107,0.139-0.25,0.121-0.393
    c-0.038-0.302-0.099-0.848-0.099-1.024c0-0.518,0-1.007,1.462-1.022c0.102-0.001,0.202-0.033,0.286-0.093
    C18.821,1,19.369,1,19.632,1C20.4,1,20.61,1.321,20.68,1.426c0.203,0.311,0.12,0.399,0.064,0.459l-0.218,0.217
    c-0.088,0.088-0.14,0.206-0.146,0.33L20.327,3.52c-0.006,0.136,0.01,0.231,0.104,0.33c0.093,0.099,0.19,0.119,0.326,0.12
    l-0.065,0.813c-0.261,0-0.477,0.201-0.498,0.461c-0.043,0.538-0.32,1.097-0.722,1.458c-0.137,0.123-0.196,0.313-0.151,0.493
    l0.204,0.817c0.045,0.179,0.184,0.32,0.364,0.364l1.792,0.448c0.602,0.151,1.062,0.605,1.234,1.176L14.062,9.999z M18.156,12.147
    l-2,2c-0.195,0.195-0.195,0.512,0,0.707C16.254,14.951,16.382,15,16.51,15s0.256-0.049,0.353-0.146l2-2
    c0.195-0.195,0.195-0.512,0-0.707C18.668,11.952,18.351,11.952,18.156,12.147z M14.947,20.854l-1.501-0.375l-0.063-0.251
    c0.389-0.43,0.666-0.979,0.781-1.549c0.267-0.138,0.46-0.4,0.5-0.715l0.108-0.87c0.033-0.264-0.048-0.53-0.223-0.73
    c-0.054-0.061-0.116-0.115-0.182-0.16l0.025-0.531l0.091-0.091c0.258-0.274,0.607-0.859,0.055-1.703
    C14.276,13.478,13.736,13,12.654,13c-0.319,0-1.038,0-1.736,0.437c-2.058,0.073-2.3,1.182-2.3,2.019
    c0,0.165,0.03,0.474,0.058,0.732c-0.074,0.047-0.142,0.105-0.201,0.172c-0.178,0.202-0.26,0.469-0.226,0.734l0.108,0.87
    c0.041,0.326,0.248,0.596,0.553,0.729c0.112,0.545,0.374,1.073,0.739,1.492l-0.073,0.294l-1.501,0.375
    C6.86,21.158,6.01,22.246,6.01,23.5c0,0.133,0.052,0.261,0.146,0.354S6.377,24,6.51,24l10.002-0.001c0.276,0,0.5-0.224,0.5-0.5
    C17.012,22.245,16.163,21.158,14.947,20.854z M7.083,22.999c0.172-0.57,0.633-1.024,1.237-1.176l1.792-0.448
    c0.179-0.045,0.319-0.185,0.364-0.364l0.213-0.853c0.044-0.176-0.011-0.362-0.144-0.486c-0.389-0.366-0.647-0.901-0.689-1.431
    c-0.021-0.259-0.243-0.403-0.504-0.403l-0.129-0.796c0.144,0,0.28-0.061,0.375-0.169c0.095-0.107,0.139-0.25,0.121-0.393
    c-0.038-0.302-0.099-0.848-0.099-1.024c0-0.518,0-1.007,1.462-1.022c0.102-0.001,0.202-0.033,0.286-0.093
    C11.844,14,12.392,14,12.655,14c0.517,0,0.859,0.139,1.047,0.426c0.203,0.311,0.12,0.399,0.064,0.46l-0.217,0.217
    c-0.088,0.088-0.14,0.205-0.146,0.329L13.35,16.52c-0.006,0.136,0.01,0.231,0.103,0.33c0.094,0.099,0.19,0.119,0.326,0.12
    l-0.064,0.813c-0.261,0-0.477,0.2-0.498,0.46c-0.044,0.539-0.321,1.098-0.723,1.459c-0.137,0.123-0.196,0.313-0.151,0.493
    l0.204,0.817c0.045,0.179,0.184,0.32,0.364,0.364l1.792,0.448c0.602,0.151,1.062,0.605,1.234,1.176L7.083,22.999z"/>
</svg>
