<svg viewBox="0 0 24 24" focusable="false" role="presentation">
	<g>
		<g>
			<path d="M7.5,17h-6C1.224,17,1,17.224,1,17.5v6C1,23.776,1.224,24,1.5,24h6C7.776,24,8,23.776,8,23.5v-6C8,17.224,7.776,17,7.5,17
				z M7,23H2v-5h5V23z M7.5,0h-6C1.224,0,1,0.224,1,0.5v6C1,6.776,1.224,7,1.5,7H4v7.293l-1.147-1.146
				c-0.195-0.195-0.512-0.195-0.707,0s-0.195,0.512,0,0.707l2,2c0.017,0.016,0.038,0.023,0.056,0.037
				c0.034,0.026,0.067,0.054,0.107,0.07C4.37,15.987,4.435,16,4.5,16s0.13-0.013,0.191-0.039c0.056-0.023,0.104-0.058,0.148-0.098
				c0.004-0.004,0.01-0.005,0.014-0.009l2-2c0.195-0.195,0.195-0.512,0-0.707s-0.512-0.195-0.707,0L5,14.293V7h2.5
				C7.776,7,8,6.776,8,6.5v-6C8,0.224,7.776,0,7.5,0z M7,6H2V1h5V6z M22.5,5h-6C16.224,5,16,5.224,16,5.5v6
				c0,0.276,0.224,0.5,0.5,0.5H19v4.5c0,1.93-1.57,3.5-3.5,3.5h-4.793l1.146-1.147c0.195-0.195,0.195-0.512,0-0.707
				c-0.195-0.195-0.512-0.195-0.707,0l-2,2c-0.001,0.001-0.001,0.004-0.003,0.005c-0.063,0.064-0.098,0.143-0.119,0.224
				c-0.005,0.02-0.008,0.037-0.011,0.058c-0.021,0.15,0.018,0.306,0.133,0.421l2,2C11.244,22.951,11.372,23,11.5,23
				s0.256-0.049,0.353-0.146c0.195-0.195,0.195-0.512,0-0.707L10.706,21H15.5c2.481,0,4.5-2.019,4.5-4.5V12h2.5
				c0.276,0,0.5-0.224,0.5-0.5v-6C23,5.224,22.776,5,22.5,5z M22,11h-5V6h5V11z"/>
		</g>
	</g>
</svg>
