<svg viewBox="0 0 24 24" focusable="false" role="presentation">
    <path d="M4.16399988,13.568 L4.16399988,17.744 C4.16399988,19.304 5.33999988,20.552 6.75599988,20.552 L8.36399988,20.552 L8.36399988,22.448 L6.82799988,22.448 C4.23599988,22.448 2.09999988,20.624 2.09999988,17.744 L2.09999988,13.568 C2.09999988,12.944 1.42799988,12.344 0.635999881,12.344 L0.635999881,10.4 C1.42799988,10.4 2.09999988,9.8 2.09999988,9.176 L2.09999988,4.952 C2.07599988,2.072 4.23599988,0.272 6.82799988,0.272 L8.36399988,0.272 L8.36399988,2.168 L6.75599988,2.168 C5.33999988,2.168 4.16399988,3.392 4.16399988,4.952 L4.16399988,9.176 C4.16399988,10.016 3.75599988,10.976 2.98799988,11.384 C3.68399988,11.768 4.16399988,12.752 4.16399988,13.568 Z" fill="currentColor"></path>
    <path d="M19.836,17.744 L19.836,13.568 C19.836,12.752 20.316,11.768 21.012,11.384 C20.244,10.976 19.836,10.016 19.836,9.176 L19.836,4.952 C19.836,3.392 18.66,2.168 17.244,2.168 L15.636,2.168 L15.636,0.272 L17.172,0.272 C19.764,0.272 21.924,2.072 21.9,4.952 L21.9,9.176 C21.9,9.8 22.572,10.4 23.364,10.4 L23.364,12.344 C22.572,12.344 21.9,12.944 21.9,13.568 L21.9,17.744 C21.9,20.624 19.764,22.448 17.172,22.448 L15.636,22.448 L15.636,20.552 L17.244,20.552 C18.66,20.552 19.836,19.304 19.836,17.744 Z" fill="currentColor"></path>
</svg>