<svg viewBox="0 0 24 24" focusable="false" role="presentation">
  <path d="M11.914,5c1.378,0,2.5-1.122,2.5-2.5S13.293,0,11.914,0c-1.378,0-2.5,1.122-2.5,2.5S10.536,5,11.914,5z M11.914,1
			c0.827,0,1.5,0.673,1.5,1.5c0,0.827-0.673,1.5-1.5,1.5c-0.827,0-1.5-0.673-1.5-1.5C10.414,1.673,11.088,1,11.914,1z M19,6
			c1.378,0,2.5-1.122,2.5-2.5S20.379,1,19,1c-1.378,0-2.5,1.122-2.5,2.5S17.622,6,19,6z M19,2c0.827,0,1.5,0.673,1.5,1.5
			C20.5,4.327,19.828,5,19,5c-0.827,0-1.5-0.673-1.5-1.5C17.5,2.673,18.174,2,19,2z M16.403,14.237L15.74,8.429
			C15.583,7.044,14.486,6,13.19,6h-2.553C9.343,6,8.247,7.044,8.089,8.429l-0.663,5.808c-0.055,0.486,0.095,0.969,0.411,1.323
			c0.273,0.305,0.634,0.483,1.027,0.505l0.552,7.472C9.435,23.798,9.653,24,9.914,24h4c0.262,0,0.48-0.202,0.498-0.463l0.552-7.472
			c0.392-0.022,0.754-0.199,1.027-0.505C16.309,15.205,16.458,14.723,16.403,14.237z M15.247,14.894
			c-0.058,0.064-0.182,0.173-0.366,0.173H14.5c-0.262,0-0.48,0.202-0.499,0.463L13.45,23h-3.071l-0.55-7.47
			c-0.02-0.261-0.237-0.463-0.499-0.463H8.95c-0.183,0-0.308-0.109-0.366-0.173c-0.127-0.143-0.187-0.341-0.164-0.544l0.663-5.808
			C9.183,7.663,9.852,7,10.639,7h2.553c0.786,0,1.455,0.663,1.556,1.542l0.663,5.808C15.434,14.553,15.374,14.751,15.247,14.894z
			 M23.355,14.315l-0.641-5.124c-0.155-1.249-1.222-2.19-2.48-2.19h-2.469c-0.278,0-0.558,0.049-0.833,0.147
			c-0.26,0.092-0.396,0.378-0.304,0.638c0.093,0.26,0.378,0.397,0.638,0.304c0.167-0.059,0.335-0.089,0.499-0.089h2.469
			c0.755,0,1.394,0.565,1.488,1.314l0.641,5.124c0.018,0.144-0.025,0.284-0.121,0.393s-0.229,0.169-0.375,0.169H21.5
			c-0.263,0-0.48,0.202-0.499,0.464l-0.467,6.536h-3.069l-0.36-5.037c-0.019-0.275-0.261-0.491-0.534-0.463
			c-0.275,0.019-0.483,0.259-0.463,0.534l0.393,5.501C16.521,22.797,16.739,23,17,23h4c0.262,0,0.48-0.203,0.498-0.463l0.467-6.539
			c0.394-0.026,0.763-0.206,1.026-0.504C23.276,15.171,23.409,14.742,23.355,14.315z M7.422,16.615
			c-0.279-0.026-0.514,0.188-0.534,0.463L6.536,22H3.466L3,15.464C2.981,15.203,2.763,15,2.5,15H2.133
			c-0.146,0-0.279-0.06-0.375-0.169s-0.139-0.248-0.121-0.393l0.641-5.124C2.371,8.565,3.01,8,3.766,8h2.469
			c0.112,0,0.231,0.017,0.377,0.056c0.267,0.066,0.541-0.09,0.611-0.357c0.07-0.267-0.09-0.541-0.357-0.611
			C6.635,7.028,6.435,7,6.234,7H3.766c-1.258,0-2.324,0.941-2.48,2.19l-0.641,5.124c-0.053,0.427,0.079,0.856,0.364,1.179
			c0.263,0.298,0.632,0.478,1.026,0.504l0.467,6.539C2.521,22.797,2.739,23,3,23h4c0.262,0,0.48-0.203,0.499-0.464l0.385-5.387
			C7.904,16.874,7.696,16.635,7.422,16.615z M5,6c1.378,0,2.5-1.122,2.5-2.5S6.379,1,5,1C3.622,1,2.5,2.122,2.5,3.5S3.622,6,5,6z
			 M5,2c0.827,0,1.5,0.673,1.5,1.5C6.5,4.327,5.828,5,5,5C4.174,5,3.5,4.327,3.5,3.5C3.5,2.673,4.174,2,5,2z" fill="currentColor" />
</svg>
