<svg width="22px" height="22px" viewBox="0 0 22 22" focusable="false" role="presentation">
  <g stroke="none" stroke-width="1" fill="none" fill-rule="evenodd">
    <g transform="translate(-1342.000000, -20.000000)" stroke="currentColor">
      <g transform="translate(0.000000, -1.000000)">
        <g>
          <g transform="translate(1343.000000, 22.000000)">
            <circle id="Oval-4" stroke-width="1.6" cx="10" cy="10" r="10"></circle>
            <path d="M10.7912,12.0752 L9.16399995,12.0752 L9.16399995,11.1968 C9.16399995,10.8127981 9.2095995,10.5272009 9.30079995,10.34 C9.39200041,10.1527991 9.59119842,9.90560154 9.89839995,9.5984 L10.9496,8.5472 C11.1704011,8.3071988 11.2808,8.00960178 11.2808,7.6544 C11.2808,7.29919822 11.1656011,7.00400118 10.9352,6.7688 C10.7047988,6.53359882 10.4072018,6.416 10.0424,6.416 C9.67759813,6.416 9.37280118,6.52879887 9.12799995,6.7544 C8.88319873,6.98000113 8.74160014,7.27999813 8.70319995,7.6544 L6.96079995,7.6544 C7.05680043,6.79999573 7.3903971,6.13040242 7.96159995,5.6456 C8.53280281,5.16079758 9.24559568,4.9184 10.1,4.9184 C10.9544042,4.9184 11.6503973,5.15119767 12.188,5.6168 C12.7256026,6.08240233 12.9944,6.73279582 12.9944,7.568 C12.9944,8.14400288 12.8360015,8.62399808 12.5192,9.008 C12.336799,9.23840115 12.1976004,9.40159952 12.1016,9.4976 C12.0055995,9.59360048 11.8784007,9.71599926 11.72,9.8648 C11.5615992,10.0136007 11.4272005,10.1431994 11.3168,10.2536 C11.2063994,10.3640006 11.1176003,10.4575996 11.0504,10.5344 C10.8775991,10.7456011 10.7912,11.0431981 10.7912,11.4272 L10.7912,12.0752 Z M9.22159995,14.9624 C9.00079885,14.755999 8.89039995,14.5064015 8.89039995,14.2136 C8.89039995,13.9207985 8.99839887,13.6688011 9.21439995,13.4576 C9.43040103,13.2463989 9.68959844,13.1408 9.99199995,13.1408 C10.2944015,13.1408 10.5559988,13.243999 10.7768,13.4504 C10.9976011,13.656801 11.108,13.9063985 11.108,14.1992 C11.108,14.4920015 11.000001,14.7439989 10.784,14.9552 C10.5679989,15.1664011 10.3088015,15.272 10.0064,15.272 C9.70399844,15.272 9.44240106,15.168801 9.22159995,14.9624 Z" id="?" stroke-width="0.25" fill="currentColor"></path>
          </g>
        </g>
      </g>
    </g>
  </g>
</svg>
