<svg viewBox="0 0 24 24" focusable="false" role="presentation">
  <path d="M18.5,10.051V6.5C18.5,2.916,15.584,0,12,0S5.5,2.916,5.5,6.5v3.551c-1.14,0.232-2,1.243-2,2.449v9
			C3.5,22.878,4.621,24,6,24h12c1.379,0,2.5-1.122,2.5-2.5v-9C20.5,11.293,19.64,10.283,18.5,10.051z M6.5,6.5
			C6.5,3.467,8.968,1,12,1s5.5,2.467,5.5,5.5V10h-1V6.5C16.5,4.019,14.481,2,12,2S7.5,4.019,7.5,6.5V10h-1V6.5z M15.5,6.5V10h-7V6.5
			C8.5,4.57,10.07,3,12,3S15.5,4.57,15.5,6.5z M19.5,21.5c0,0.827-0.673,1.5-1.5,1.5H6c-0.827,0-1.5-0.673-1.5-1.5v-9
			C4.5,11.673,5.173,11,6,11h12c0.827,0,1.5,0.673,1.5,1.5V21.5z M12,13c-1.379,0-2.5,1.122-2.5,2.5c0,0.95,0.555,1.813,1.391,2.231
			l-0.386,2.699c-0.021,0.143,0.022,0.289,0.117,0.398C10.717,20.937,10.855,21,11,21h2c0.145,0,0.283-0.064,0.378-0.173
			c0.095-0.109,0.138-0.254,0.117-0.398l-0.386-2.699c0.836-0.417,1.391-1.28,1.391-2.23C14.5,14.122,13.379,13,12,13z
			 M12.418,16.931c-0.238,0.07-0.389,0.305-0.354,0.551L12.424,20h-0.848l0.36-2.518c0.036-0.246-0.116-0.481-0.354-0.551
			C10.935,16.742,10.5,16.167,10.5,15.5c0-0.827,0.673-1.5,1.5-1.5s1.5,0.673,1.5,1.5C13.5,16.167,13.065,16.742,12.418,16.931z" fill="currentColor" />
</svg>