<svg viewBox="0 0 24 24" focusable="false" role="presentation">
  <path d="M21.5,20h-19C1.122,20,0,18.878,0,17.5v-11C0,5.122,1.122,4,2.5,4h19C22.878,4,24,5.122,24,6.5v11
    C24,18.878,22.878,20,21.5,20z M2.5,5C1.673,5,1,5.673,1,6.5v11C1,18.327,1.673,19,2.5,19h19c0.827,0,1.5-0.673,1.5-1.5v-11
    C23,5.673,22.327,5,21.5,5H2.5z" fill="currentColor" />
  <path d="M12,13.017c-0.55,0-1.101-0.164-1.581-0.493L2.218,6.913C1.99,6.757,1.932,6.446,2.087,6.218s0.466-0.287,0.695-0.13
    l8.201,5.611c0.617,0.422,1.415,0.422,2.033,0l8.201-5.611c0.229-0.155,0.54-0.098,0.695,0.13c0.156,0.228,0.098,0.539-0.13,0.695
    l-8.201,5.611C13.101,12.853,12.55,13.017,12,13.017z" fill="currentColor" />
  <path d="M2.5,18c-0.144,0-0.286-0.061-0.385-0.18c-0.177-0.212-0.148-0.528,0.064-0.705l6-5c0.212-0.176,0.528-0.147,0.705,0.064
    c0.177,0.212,0.148,0.528-0.064,0.705l-6,5C2.727,17.962,2.613,18,2.5,18z" fill="currentColor" />
  <path d="M21.5,18c-0.113,0-0.226-0.038-0.32-0.116l-6-5c-0.212-0.177-0.241-0.492-0.064-0.705c0.177-0.211,0.492-0.24,0.705-0.064
    l6,5c0.212,0.177,0.241,0.492,0.064,0.705C21.785,17.939,21.643,18,21.5,18z" fill="currentColor" />
</svg>
