<svg viewBox="0 0 24 24" focusable="false" role="presentation">
	<path d="M12,14c-3.032,0-5.5-2.467-5.5-5.5S8.968,3,12,3s5.5,2.467,5.5,5.5S15.032,14,12,14z M12,4C9.519,4,7.5,6.019,7.5,8.5
					S9.519,13,12,13s4.5-2.019,4.5-4.5S14.481,4,12,4z" fill="currentColor"/>
	<path d="M12,14c-3.032,0-5.5-2.467-5.5-5.5S8.968,3,12,3s5.5,2.467,5.5,5.5S15.032,14,12,14z M12,4C9.519,4,7.5,6.019,7.5,8.5
					S9.519,13,12,13s4.5-2.019,4.5-4.5S14.481,4,12,4z" fill="currentColor"/>
	<path d="M12,24c-0.116,0-0.233-0.041-0.327-0.122C11.339,23.59,3.5,16.718,3.5,8.5C3.5,3.813,7.313,0,12,0s8.5,3.813,8.5,8.5
				c0,8.218-7.839,15.09-8.173,15.378C12.233,23.959,12.116,24,12,24z M12,1C7.864,1,4.5,4.364,4.5,8.5
				c0,6.842,6.016,12.926,7.5,14.322c1.483-1.397,7.5-7.488,7.5-14.322C19.5,4.364,16.136,1,12,1z" fill="currentColor"/>
</svg>