<svg viewBox="0 0 24 24" focusable="false" role="presentation">
  <path d="M6.5,23h-4C1.122,23,0,21.878,0,20.5v-4c0-1.423,0.554-2.761,1.561-3.768l9.586-9.586c0.195-0.195,0.512-0.195,0.707,0
    s0.195,0.512,0,0.707l-9.586,9.586C1.45,14.257,1,15.344,1,16.5v4C1,21.327,1.673,22,2.5,22h4c1.156,0,2.243-0.45,3.061-1.268
    L22.086,8.207C22.675,7.618,23,6.833,23,6s-0.325-1.618-0.914-2.207l-0.879-0.879c-1.179-1.179-3.235-1.179-4.414,0L5.561,14.146
    C5.204,14.503,5,14.996,5,15.5v2C5,17.776,5.224,18,5.5,18h2c0.504,0,0.997-0.204,1.354-0.561l8.293-8.293
    c0.195-0.195,0.512-0.195,0.707,0s0.195,0.512,0,0.707l-8.293,8.293C9.018,18.689,8.267,19,7.5,19h-2C4.673,19,4,18.327,4,17.5v-2
    c0-0.767,0.311-1.518,0.854-2.061L16.086,2.207C16.864,1.429,17.899,1,19,1s2.136,0.429,2.914,1.207l0.879,0.879
    C23.571,3.864,24,4.899,24,6s-0.429,2.136-1.207,2.914L10.268,21.439C9.261,22.446,7.923,23,6.5,23z" fill="currentColor"/>
</svg>