<svg xmlns="http://www.w3.org/2000/svg" viewBox="0 0 24 24">
  <g fill="none" fill-rule="evenodd">
    <path fill="currentColor" fill-rule="nonzero" d="M14.375,20.708333 L14.375,10.625 C14.375,10.0262968 13.89037,9.541667 13.2916667,9.541667 L2.29166667,9.541667 C1.69296332,9.541667 1.20833333,10.0262968 1.20833333,10.625 L1.20833333,20.708333 C1.20833333,21.3070365 1.69296364,21.791667 2.29166667,21.791667 L13.2916667,21.791667 C13.8903697,21.791667 14.375,21.3070365 14.375,20.708333 Z M15.875,20.708333 C15.875,22.1354635 14.7187969,23.291667 13.2916667,23.291667 L2.29166667,23.291667 C0.864536387,23.291667 -0.291666667,22.1354635 -0.291666667,20.708333 L-0.291666667,10.625 C-0.291666667,9.19786955 0.864536323,8.041667 2.29166667,8.041667 L13.2916667,8.041667 C14.718797,8.041667 15.875,9.19786957 15.875,10.625 L15.875,20.708333 Z"/>
    <path fill="currentColor" fill-rule="nonzero" d="M8.625,5.125 C8.625,5.53921356 8.28921356,5.875 7.875,5.875 C7.46078644,5.875 7.125,5.53921356 7.125,5.125 L7.125,3.2916667 C7.125,1.86453644 8.2812031,0.7083333 9.70833333,0.7083333 L20.7083333,0.7083333 C22.1354636,0.7083333 23.2916667,1.86453644 23.2916667,3.2916667 L23.2916667,13.375 C23.2916667,14.8021305 22.1354637,15.958333 20.7083333,15.958333 L18.875,15.958333 C18.4607864,15.958333 18.125,15.6225466 18.125,15.208333 C18.125,14.7941194 18.4607864,14.458333 18.875,14.458333 L20.7083333,14.458333 C21.3070367,14.458333 21.7916667,13.9737032 21.7916667,13.375 L21.7916667,3.2916667 C21.7916667,2.69296356 21.3070364,2.2083333 20.7083333,2.2083333 L9.70833333,2.2083333 C9.10963024,2.2083333 8.625,2.69296356 8.625,3.2916667 L8.625,5.125 Z"/>
    <path fill="currentColor" fill-rule="nonzero" d="M4.95833333,8.791667 C4.95833333,9.20588056 4.62254689,9.541667 4.20833333,9.541667 C3.79411977,9.541667 3.45833333,9.20588056 3.45833333,8.791667 L3.45833333,6.958333 C3.45833333,5.53120306 4.61453652,4.375 6.04166667,4.375 L17.0416667,4.375 C18.4687968,4.375 19.625,5.53120307 19.625,6.958333 L19.625,17.041667 C19.625,18.4687967 18.4687967,19.625 17.0416667,19.625 L16.125,19.625 C15.7107864,19.625 15.375,19.2892136 15.375,18.875 C15.375,18.4607864 15.7107864,18.125 16.125,18.125 L17.0416667,18.125 C17.6403696,18.125 18.125,17.6403696 18.125,17.041667 L18.125,6.958333 C18.125,6.35963023 17.6403697,5.875 17.0416667,5.875 L6.04166667,5.875 C5.44296361,5.875 4.95833333,6.35963022 4.95833333,6.958333 L4.95833333,8.791667 Z"/>
  </g>
</svg>
