<svg viewBox="0 0 24 24" focusable="false" role="presentation">
	<path d="M21.5,0.5h-19C1.121,0.5,0,1.622,0,3v18c0,1.378,1.121,2.5,2.5,2.5h19c1.379,0,2.5-1.122,2.5-2.5V3
		C24,1.622,22.879,0.5,21.5,0.5z M2.5,1.5h19C22.327,1.5,23,2.173,23,3v1.5H1V3C1,2.173,1.673,1.5,2.5,1.5z M21.5,22.5h-19
		C1.673,22.5,1,21.827,1,21V5.5h22V21C23,21.827,22.327,22.5,21.5,22.5z"/>
	<circle cx="2.5" cy="3" r="0.5"/>
	<circle cx="4.5" cy="3" r="0.5"/>
	<circle cx="6.5" cy="3" r="0.5"/>
	<path d="M9.5,12.5h-2C7.224,12.5,7,12.724,7,13v0.5H6v-3h0.5C6.776,10.5,7,10.276,7,10V8c0-0.276-0.224-0.5-0.5-0.5h-2
		C4.224,7.5,4,7.724,4,8v2c0,0.276,0.224,0.5,0.5,0.5H5V19c0,0.276,0.224,0.5,0.5,0.5H7V20c0,0.276,0.224,0.5,0.5,0.5h2
		c0.276,0,0.5-0.224,0.5-0.5v-2c0-0.276-0.224-0.5-0.5-0.5h-2C7.224,17.5,7,17.724,7,18v0.5H6v-4h1V15c0,0.276,0.224,0.5,0.5,0.5h2
		c0.276,0,0.5-0.224,0.5-0.5v-2C10,12.724,9.776,12.5,9.5,12.5z M5,8.5h1v1H5V8.5z M8,18.5h1v1H8V18.5z M9,14.5H8v-1h1V14.5z"/>
	<path d="M9.5,9.5h7C16.776,9.5,17,9.276,17,9s-0.224-0.5-0.5-0.5h-7C9.224,8.5,9,8.724,9,9S9.224,9.5,9.5,9.5z"/>
	<path d="M19.5,13.5h-7c-0.276,0-0.5,0.224-0.5,0.5s0.224,0.5,0.5,0.5h7c0.276,0,0.5-0.224,0.5-0.5S19.776,13.5,19.5,13.5z"/>
	<path d="M19.5,18.5h-7c-0.276,0-0.5,0.224-0.5,0.5s0.224,0.5,0.5,0.5h7c0.276,0,0.5-0.224,0.5-0.5S19.776,18.5,19.5,18.5z"/>
</svg>
