<svg xmlns="http://www.w3.org/2000/svg" width="24" height="24" viewBox="0 0 24 24">
    <path fill="currentColor" fill-rule="evenodd" d="M12,24.0026667 C5.38381259,24.0026667 0,18.6186667 0,12.0013333 C0,5.384 5.38381259,0 12,0 C18.6175197,0 24,5.384 24,12.0013333 C24,18.6186667 18.6175197,24.0026667 12,24.0026667 Z M12,2.668 C6.85333629,2.668 2.6672588,6.85466667 2.6672588,12.0013333 C2.6672588,17.148 6.85333629,21.3346667 12,21.3346667 C17.1466637,21.3346667 21.3327412,17.148 21.3327412,12.0013333 C21.3327412,6.85466667 17.1466637,2.668 12,2.668 Z M16.6284001,13.1133333 L13.3336294,13.1133333 L13.3336294,16.408 C13.3336294,17.144 12.7367603,17.7413333 12,17.7413333 C11.2632397,17.7413333 10.6663706,17.144 10.6663706,16.408 L10.6663706,13.1133333 L7.37293216,13.1133333 C6.63617187,13.1133333 6.03930276,12.5173333 6.03930276,11.78 C6.03930276,11.044 6.63617187,10.4466667 7.37293216,10.4466667 L10.6663706,10.4466667 L10.6663706,7.152 C10.6663706,6.41466667 11.2632397,5.81733333 12,5.81733333 C12.7367603,5.81733333 13.3336294,6.41466667 13.3336294,7.152 L13.3336294,10.4466667 L16.6284001,10.4466667 C17.3638281,10.4466667 17.9606972,11.044 17.9606972,11.78 C17.9606972,12.5173333 17.3638281,13.1133333 16.6284001,13.1133333 Z"/>
</svg>
