<svg xmlns="http://www.w3.org/2000/svg" width="24" height="24" viewBox="0 0 24 24">
  <g fill="none" fill-rule="evenodd" stroke="#878C93" stroke-linecap="round" stroke-linejoin="round" transform="translate(3 3)">
    <path d="M4.5,9.375 C4.5,8.33925 5.33925,7.5 6.375,7.5 C7.41075,7.5 8.25,8.33925 8.25,9.375 C8.25,10.41075 7.41075,11.25 6.375,11.25 L5.25,11.25 L6.375,11.25 C7.41075,11.25 8.25,12.08925 8.25,13.125 C8.25,14.16075 7.41075,15 6.375,15 C5.33925,15 4.5,14.16075 4.5,13.125"/>
    <polyline points="10.5 9 12 7.5 12 15"/>
    <path d="M15 1.5C16.24275 1.5 17.25 2.50725 17.25 3.75L17.25 15C17.25 16.24275 16.24275 17.25 15 17.25L2.25 17.25C1.00725 17.25 0 16.24275 0 15L0 3.75C0 2.50725 1.00725 1.5 2.25 1.5M5.25 1.5L12 1.5M3.75 0L3.75 3M13.5 0L13.5 3M0 5.25L17.25 5.25"/>
  </g>
</svg>
