<svg width="12" height="13" viewBox="0 0 12 13" fill="none" xmlns="http://www.w3.org/2000/svg">
    <path d="M10.6667 2.21091H10V1.26354C10 1.17979 9.96488 1.09947 9.90237 1.04025C9.83986 0.981025 9.75507 0.947754 9.66667 0.947754H9C8.91159 0.947754 8.82681 0.981025 8.7643 1.04025C8.70179 1.09947 8.66667 1.17979 8.66667 1.26354V2.21091H3.33333V1.26354C3.33333 1.17979 3.29821 1.09947 3.2357 1.04025C3.17319 0.981025 3.08841 0.947754 3 0.947754H2.33333C2.24493 0.947754 2.16014 0.981025 2.09763 1.04025C2.03512 1.09947 2 1.17979 2 1.26354V2.21091H1.33333C0.979711 2.21091 0.640573 2.34399 0.390524 2.58088C0.140476 2.81777 0 3.13906 0 3.47407V11.6846C0 12.0196 0.140476 12.3409 0.390524 12.5778C0.640573 12.8147 0.979711 12.9478 1.33333 12.9478H10.6667C11.0203 12.9478 11.3594 12.8147 11.6095 12.5778C11.8595 12.3409 12 12.0196 12 11.6846V3.47407C12 3.13906 11.8595 2.81777 11.6095 2.58088C11.3594 2.34399 11.0203 2.21091 10.6667 2.21091V2.21091ZM10.6667 11.6846H1.33333V4.73723H10.6667V11.6846ZM5.66667 7.26354H6.33333C6.42174 7.26354 6.50652 7.23027 6.56904 7.17105C6.63155 7.11183 6.66667 7.03151 6.66667 6.94775V6.31617C6.66667 6.23242 6.63155 6.1521 6.56904 6.09288C6.50652 6.03366 6.42174 6.00039 6.33333 6.00039H5.66667C5.57826 6.00039 5.49348 6.03366 5.43096 6.09288C5.36845 6.1521 5.33333 6.23242 5.33333 6.31617V6.94775C5.33333 7.03151 5.36845 7.11183 5.43096 7.17105C5.49348 7.23027 5.57826 7.26354 5.66667 7.26354ZM8.33333 7.26354H9C9.08841 7.26354 9.17319 7.23027 9.2357 7.17105C9.29821 7.11183 9.33333 7.03151 9.33333 6.94775V6.31617C9.33333 6.23242 9.29821 6.1521 9.2357 6.09288C9.17319 6.03366 9.08841 6.00039 9 6.00039H8.33333C8.24493 6.00039 8.16014 6.03366 8.09763 6.09288C8.03512 6.1521 8 6.23242 8 6.31617V6.94775C8 7.03151 8.03512 7.11183 8.09763 7.17105C8.16014 7.23027 8.24493 7.26354 8.33333 7.26354ZM3 7.26354H3.66667C3.75507 7.26354 3.83986 7.23027 3.90237 7.17105C3.96488 7.11183 4 7.03151 4 6.94775V6.31617C4 6.23242 3.96488 6.1521 3.90237 6.09288C3.83986 6.03366 3.75507 6.00039 3.66667 6.00039H3C2.91159 6.00039 2.82681 6.03366 2.7643 6.09288C2.70179 6.1521 2.66667 6.23242 2.66667 6.31617V6.94775C2.66667 7.03151 2.70179 7.11183 2.7643 7.17105C2.82681 7.23027 2.91159 7.26354 3 7.26354ZM5.66667 9.78986H6.33333C6.42174 9.78986 6.50652 9.75659 6.56904 9.69737C6.63155 9.63814 6.66667 9.55782 6.66667 9.47407V8.84249C6.66667 8.75874 6.63155 8.67842 6.56904 8.61919C6.50652 8.55997 6.42174 8.5267 6.33333 8.5267H5.66667C5.57826 8.5267 5.49348 8.55997 5.43096 8.61919C5.36845 8.67842 5.33333 8.75874 5.33333 8.84249V9.47407C5.33333 9.55782 5.36845 9.63814 5.43096 9.69737C5.49348 9.75659 5.57826 9.78986 5.66667 9.78986ZM3 9.78986H3.66667C3.75507 9.78986 3.83986 9.75659 3.90237 9.69737C3.96488 9.63814 4 9.55782 4 9.47407V8.84249C4 8.75874 3.96488 8.67842 3.90237 8.61919C3.83986 8.55997 3.75507 8.5267 3.66667 8.5267H3C2.91159 8.5267 2.82681 8.55997 2.7643 8.61919C2.70179 8.67842 2.66667 8.75874 2.66667 8.84249V9.47407C2.66667 9.55782 2.70179 9.63814 2.7643 9.69737C2.82681 9.75659 2.91159 9.78986 3 9.78986Z" fill="currentColor"/>
</svg>
