<svg viewBox="0 0 24 24" focusable="false" role="presentation">
  <path fill="currentColor" d="M19.5,19c-1.379,0-2.5-1.122-2.5-2.5s1.121-2.5,2.5-2.5s2.5,1.122,2.5,2.5S20.879,19,19.5,19z M19.5,15
  c-0.827,0-1.5,0.673-1.5,1.5c0,0.827,0.673,1.5,1.5,1.5s1.5-0.673,1.5-1.5C21,15.673,20.327,15,19.5,15z" />
  <path fill="currentColor" d="M21.5,24c-0.076,0-0.152-0.018-0.224-0.053L19.5,23.059l-1.776,0.888c-0.169,0.085-0.374,0.066-0.527-0.05
  c-0.151-0.116-0.224-0.308-0.187-0.496l1-5c0.055-0.271,0.328-0.448,0.588-0.392c0.271,0.054,0.447,0.317,0.393,0.588l-0.8,3.998
  l1.086-0.543c0.141-0.07,0.307-0.07,0.447,0l1.086,0.543l-0.8-3.998c-0.055-0.271,0.121-0.534,0.393-0.588
  c0.26-0.057,0.533,0.121,0.588,0.392l1,5c0.037,0.188-0.035,0.379-0.187,0.496C21.715,23.965,21.607,24,21.5,24z" />
  <path fill="currentColor" d="M15.5,22h-13C2.224,22,2,21.776,2,21.5v-15c0-0.133,0.053-0.26,0.146-0.354l6-6C8.24,0.053,8.367,0,8.5,0h11
  C19.776,0,20,0.224,20,0.5v12c0,0.276-0.224,0.5-0.5,0.5S19,12.776,19,12.5V1H8.707L3,6.707V21h12.5
  c0.276,0,0.5,0.224,0.5,0.5S15.776,22,15.5,22z" />
  <path fill="currentColor" d="M8.5,7h-6C2.224,7,2,6.776,2,6.5S2.224,6,2.5,6H8V0.5C8,0.224,8.224,0,8.5,0S9,0.224,9,0.5v6C9,6.776,8.776,7,8.5,7z
  " />
  <path fill="currentColor" d="M14.498,9.999c-1.329,0-2.401-0.696-2.495-1.62c-0.028-0.275,0.172-0.521,0.446-0.548
    c0.271-0.026,0.521,0.171,0.548,0.447c0.035,0.341,0.66,0.721,1.501,0.721C15.344,8.999,16,8.597,16,8.25
    c0-0.234-0.256-0.553-1.476-0.74c-0.003,0-0.104-0.017-0.107-0.017C13.752,7.391,12,7.122,12,5.749c0-0.981,1.099-1.75,2.502-1.75
    c1.329,0,2.401,0.696,2.495,1.619c0.028,0.275-0.172,0.52-0.446,0.548c-0.276,0.022-0.521-0.172-0.548-0.447
    c-0.035-0.341-0.66-0.721-1.501-0.721C13.656,4.999,13,5.403,13,5.749c0,0.234,0.257,0.554,1.479,0.741
    c0.003,0,0.104,0.017,0.107,0.017C15.251,6.609,17,6.878,17,8.25C17,9.231,15.901,9.999,14.498,9.999z" />
  <path fill="currentColor" d="M9.5,11h-5C4.224,11,4,10.776,4,10.5S4.224,10,4.5,10h5c0.276,0,0.5,0.224,0.5,0.5S9.776,11,9.5,11z" />
  <path fill="currentColor" d="M15.5,15h-11C4.224,15,4,14.776,4,14.5S4.224,14,4.5,14h11c0.276,0,0.5,0.224,0.5,0.5S15.776,15,15.5,15z" />
  <path fill="currentColor" d="M8.5,19h-4C4.224,19,4,18.776,4,18.5S4.224,18,4.5,18h4C8.776,18,9,18.224,9,18.5S8.776,19,8.5,19z" />
  <path fill="currentColor" d="M14.5,11c-0.276,0-0.5-0.224-0.5-0.5v-7C14,3.224,14.224,3,14.5,3S15,3.224,15,3.5v7C15,10.776,14.776,11,14.5,11z" />
</svg>