<?xml version="1.0" encoding="UTF-8"?>
<svg width="24px" height="25px" viewBox="0 0 24 25" version="1.1" xmlns="http://www.w3.org/2000/svg" xmlns:xlink="http://www.w3.org/1999/xlink">
    <g id="Page-1" stroke="none" stroke-width="1" fill="none" fill-rule="evenodd">
        <g id="Home-Onboarding-" transform="translate(-20.000000, -132.000000)">
            <g id="Data-Builder-Icon" transform="translate(12.000000, 126.000000)">
                <rect id="Rectangle" x="0" y="0" width="37" height="37"></rect>
                <g stroke-width="1" fill-rule="evenodd" transform="translate(8.928125, 7.500000)">
                    <g>
                        <path d="M10.9328094,21.9210133 C10.3367826,21.972795 9.7194189,22 9.08695652,22 C4.85259955,22 1.29501763,20.7805793 0.286288538,19.1304348 L-5.32907052e-15,19.1304348 L-5.32907052e-15,3.82608696 C-5.32907052e-15,1.71313043 4.06808696,0 9.08695652,0 C14.1058261,0 18.173913,1.71313043 18.173913,3.82608696 L18.173913,15.6666794 C17.4765273,14.861391 16.4547871,14.3478261 15.3043478,14.3478261 C13.1913913,14.3478261 11.4782609,16.0609565 11.4782609,18.173913 C10.4222609,18.173913 9.56521739,19.0309565 9.56521739,20.0869565 C9.56521739,20.9534656 10.1422777,21.6860142 10.9328094,21.9210133 Z" id="Combined-Shape" fill-opacity="0.1" fill="currentColor"></path>
                        <path d="M18.173913,3.82608696 C18.173913,5.93904348 14.1058261,7.65217391 9.08695652,7.65217391 C4.06808696,7.65217391 0,5.93904348 0,3.82608696 C0,1.71313043 4.06808696,0 9.08695652,0 C14.1058261,0 18.173913,1.71313043 18.173913,3.82608696 Z" id="Stroke-4502" stroke="currentColor" stroke-width="1.5" stroke-linecap="round" stroke-linejoin="round"></path>
                        <path d="M18.173913,8.60869565 C18.173913,10.7216522 14.1058261,12.4347826 9.08695652,12.4347826 C4.06808696,12.4347826 0,10.7216522 0,8.60869565" id="Stroke-4504" stroke="currentColor" stroke-width="1.5" stroke-linecap="round" stroke-linejoin="round"></path>
                        <path d="M0,13.3913043 C0,15.4876592 3.87841797,17.1955566 7.75683594,17.1955566" id="Stroke-4506" stroke="currentColor" stroke-width="1.5" stroke-linecap="round" stroke-linejoin="round"></path>
                        <path d="M0,3.82608696 L0,18.1897887 C0,20.1748523 4.18432617,21.402832 7.01831055,21.402832" id="Stroke-4508" stroke="currentColor" stroke-width="1.5" stroke-linecap="round" stroke-linejoin="round"></path>
                        <polyline id="Stroke-4510" stroke="currentColor" stroke-width="1.5" stroke-linecap="round" stroke-linejoin="round" points="18.173913 12.2597656 18.173913 9.00708008 18.173913 3.82608696"></polyline>
                        <path d="M19.1304348,16.2608696 C18.9582609,16.2608696 18.7918261,16.281913 18.6273043,16.3115652 C17.972087,15.1455652 16.7381739,14.3478261 15.3043478,14.3478261 C13.1913913,14.3478261 11.4782609,16.0609565 11.4782609,18.173913 C10.4222609,18.173913 9.56521739,19.0309565 9.56521739,20.0869565 C9.56521739,21.1429565 10.4222609,22 11.4782609,22 L19.1304348,22 C20.7153913,22 22,20.7153913 22,19.1304348 C22,17.5454783 20.7153913,16.2608696 19.1304348,16.2608696 Z" id="Stroke-4500-Copy" stroke="currentColor" stroke-width="1.5" fill-opacity="0.1" fill="currentColor" stroke-linecap="round" stroke-linejoin="round"></path>
                    </g>
                </g>
            </g>
        </g>
    </g>
</svg>
