<?xml version="1.0" encoding="UTF-8"?>
<svg width="24" height="24" viewBox="0 0 24 24">
  <g fill="none" fill-rule="evenodd" stroke="currentColor" stroke-linecap="round" stroke-linejoin="round" stroke-width=".9" transform="translate(1.5 1)">
    <g transform="translate(13.696)">
      <path d="M7.30434783 1.375C7.30434783 2.134 5.66908696 2.75 3.65217391 2.75 1.63526087 2.75 0 2.134 0 1.375 0 .616 1.63526087 0 3.65217391 0 5.66908696 0 7.30434783.616 7.30434783 1.375zM7.30434783 3.17524167C7.30434783 3.98924167 5.66908696 4.648325 3.65217391 4.648325 1.63526087 4.648325 0 3.98924167 0 3.17524167M7.30434783 4.94321667C7.30434783 5.75721667 5.66908696 6.4163 3.65217391 6.4163 1.63526087 6.4163 0 5.75721667 0 4.94321667"/>
      <path d="M7.30434783,1.47345 L7.30434783,6.77636667 C7.30434783,7.62611667 5.66908696,8.25036667 3.65217391,8.25036667 C1.63526087,8.25036667 0,7.62611667 0,6.77636667 L0,1.47345"/>
    </g>
    <g transform="translate(0 13.75)">
      <path d="M7.30434783 1.375C7.30434783 2.134 5.66908696 2.75 3.65217391 2.75 1.63526087 2.75 0 2.134 0 1.375 0 .616 1.63526087 0 3.65217391 0 5.66908696 0 7.30434783.616 7.30434783 1.375zM7.30434783 3.17524167C7.30434783 3.98924167 5.66908696 4.648325 3.65217391 4.648325 1.63526087 4.648325 0 3.98924167 0 3.17524167M7.30434783 4.94321667C7.30434783 5.75721667 5.66908696 6.4163 3.65217391 6.4163 1.63526087 6.4163 0 5.75721667 0 4.94321667"/>
      <path d="M7.30434783,1.47345 L7.30434783,6.77636667 C7.30434783,7.62611667 5.66908696,8.25036667 3.65217391,8.25036667 C1.63526087,8.25036667 0,7.62611667 0,6.77636667 L0,1.47345"/>
    </g>
    <path d="M3.65217391 11L3.65217391 6.41666667C3.65217391 5.40466667 4.47026087 4.58333333 5.47826087 4.58333333L10.0434783 4.58333333 9.13043478 3.66666667 10.0434783 4.58333333 9.13043478 5.5M17.3478261 11.9166667L17.3478261 16.5C17.3478261 17.512 16.5297391 18.3333333 15.5217391 18.3333333L10.9565217 18.3333333 11.8695652 19.25 10.9565217 18.3333333 11.8695652 17.4166667"/>
  </g>
</svg>
