<svg viewBox="0 0 24 24" focusable="false" role="presentation">
<path fill="currentColor" d="M12,0C6.393,0,2,1.977,2,4.5v15C2,22.023,6.393,24,12,24s10-1.977,10-4.5v-15C22,1.977,17.607,0,12,0z M21,14.5
	c0,1.655-3.696,3.5-9,3.5s-9-1.845-9-3.5v-3.018C4.603,12.984,7.985,14,12,14s7.397-1.016,9-2.518V14.5z M21,9.5
	c0,1.655-3.696,3.5-9,3.5s-9-1.845-9-3.5V6.482C4.603,7.984,7.985,9,12,9s7.397-1.016,9-2.518V9.5z M12,1c5.304,0,9,1.845,9,3.5
	C21,6.155,17.304,8,12,8S3,6.155,3,4.5C3,2.845,6.696,1,12,1z M12,23c-5.304,0-9-1.845-9-3.5v-3.018C4.603,17.984,7.985,19,12,19
	s7.397-1.016,9-2.518V19.5C21,21.155,17.304,23,12,23z"/>
</svg>
