<svg xmlns="http://www.w3.org/2000/svg" viewBox="0 0 24 24">
  <g fill="none" fill-rule="evenodd">
    <path fill="currentColor" fill-rule="nonzero" d="M10.1382857,10.8095 C9.552,10.8095 9.08914286,11.3345 9.08914286,11.975 C9.08914286,12.6155 9.56228571,13.1405 10.1382857,13.1405 C10.7245714,13.1405 11.1874286,12.6155 11.1874286,11.975 C11.1977143,11.3345 10.7245714,10.8095 10.1382857,10.8095 Z M13.8925714,10.8095 C13.3062857,10.8095 12.8434286,11.3345 12.8434286,11.975 C12.8434286,12.6155 13.3165714,13.1405 13.8925714,13.1405 C14.4788571,13.1405 14.9417143,12.6155 14.9417143,11.975 C14.9417143,11.3345 14.4788571,10.8095 13.8925714,10.8095 Z"/>
    <path fill="currentColor" fill-rule="nonzero" d="M18.8914286,2 L5.10857143,2 C3.94628571,2 3,2.966 3,4.163 L3,18.359 C3,19.556 3.94628571,20.522 5.10857143,20.522 L16.7725714,20.522 L16.2274286,18.5795 L17.544,19.829 L18.7885714,21.005 L21,23 L21,4.163 C21,2.966 20.0537143,2 18.8914286,2 Z M14.9211429,15.713 C14.9211429,15.713 14.5508571,15.2615 14.2422857,14.8625 C15.5897143,14.474 16.104,13.613 16.104,13.613 C15.6822857,13.8965 15.2811429,14.096 14.9211429,14.2325 C14.4068571,14.453 13.9131429,14.6 13.4297143,14.684 C12.4422857,14.873 11.5371429,14.8205 10.7657143,14.6735 C10.1794286,14.558 9.67542857,14.39 9.25371429,14.222 C9.01714286,14.1275 8.76,14.012 8.50285714,13.865 C8.472,13.844 8.44114286,13.8335 8.41028571,13.8125 C8.38971429,13.802 8.37942857,13.7915 8.36914286,13.781 C8.184,13.676 8.08114286,13.6025 8.08114286,13.6025 C8.08114286,13.6025 8.57485714,14.4425 9.88114286,14.8415 C9.57257143,15.2405 9.192,15.713 9.192,15.713 C6.91885714,15.6395 6.05485714,14.117 6.05485714,14.117 C6.05485714,10.736 7.536,7.9955 7.536,7.9955 C9.01714286,6.8615 10.4262857,6.893 10.4262857,6.893 L10.5291429,7.019 C8.67771429,7.565 7.824,8.3945 7.824,8.3945 C7.824,8.3945 8.05028571,8.2685 8.43085714,8.09 C9.53142857,7.5965 10.4057143,7.46 10.7657143,7.4285 C10.8274286,7.418 10.8788571,7.4075 10.9405714,7.4075 C11.568,7.3235 12.2777143,7.3025 13.0182857,7.3865 C13.9954286,7.502 15.0445714,7.796 16.1142857,8.3945 C16.1142857,8.3945 15.3017143,7.607 13.5531429,7.061 L13.6971429,6.893 C13.6971429,6.893 15.1062857,6.8615 16.5874286,7.9955 C16.5874286,7.9955 18.0685714,10.736 18.0685714,14.117 C18.0685714,14.117 17.1942857,15.6395 14.9211429,15.713 Z"/>
  </g>
</svg>
