<svg viewBox="0 0 24 24" style="enable-background:new 0 0 24 24;" xml:space="preserve">
<g>
	<g>
		<path fill="currentColor" d="M13.283,22.743C12.217,22.914,11.112,23,10,23c-5.304,0-9-1.845-9-3.5v-3.018C2.602,17.984,5.985,19,10,19
			c0.524,0,1.035-0.021,1.537-0.056c0.275-0.018,0.484-0.257,0.465-0.533c-0.019-0.275-0.261-0.485-0.533-0.465
			C10.989,17.979,10.501,18,10,18c-5.304,0-9-1.845-9-3.5v-3.018C2.602,12.984,5.985,14,10,14c1.426,0,2.814-0.132,4.127-0.391
			c0.271-0.054,0.447-0.316,0.394-0.587c-0.054-0.272-0.317-0.451-0.588-0.394C12.684,12.875,11.361,13,10,13
			c-5.304,0-9-1.845-9-3.5V6.482C2.602,7.984,5.985,9,10,9s7.397-1.016,9-2.518v3.024c-0.003,0.676-0.596,1.246-1.095,1.604
			c-0.224,0.162-0.275,0.474-0.114,0.698c0.097,0.136,0.251,0.208,0.406,0.208c0.101,0,0.203-0.031,0.292-0.093
			c0.193-0.139,0.354-0.287,0.511-0.435v0.092c0,0.276,0.224,0.5,0.5,0.5s0.5-0.224,0.5-0.5V9.508c0-0.002,0.001-0.005,0.001-0.007
			C20.001,9.499,20,9.498,20,9.496V4.5C20,1.977,15.607,0,10,0S0,1.977,0,4.5v15C0,22.023,4.393,24,10,24
			c1.165,0,2.322-0.091,3.44-0.269c0.273-0.044,0.458-0.3,0.415-0.573C13.812,22.886,13.554,22.702,13.283,22.743z M10,1
			c5.304,0,9,1.845,9,3.5C19,6.155,15.304,8,10,8S1,6.155,1,4.5C1,2.845,4.695,1,10,1z M18.501,13c-1.512,0-2.884,0.614-3.879,1.605
			c-0.003,0.003-0.007,0.004-0.01,0.007c-0.003,0.003-0.004,0.007-0.007,0.01c-0.991,0.995-1.604,2.366-1.604,3.878
			c0,3.032,2.467,5.5,5.5,5.5c1.51,0,2.88-0.613,3.875-1.602c0.004-0.004,0.01-0.005,0.014-0.009
			c0.004-0.004,0.005-0.01,0.009-0.014c0.989-0.995,1.602-2.365,1.602-3.875C24.001,15.468,21.534,13,18.501,13z M18.501,23
			c-2.481,0-4.5-2.019-4.5-4.5c0-1.06,0.384-2.023,1-2.793L21.294,22C20.524,22.616,19.561,23,18.501,23z M22.001,21.293L15.707,15
			c0.77-0.616,1.733-1,2.794-1c2.482,0,4.5,2.019,4.5,4.5C23.001,19.56,22.617,20.523,22.001,21.293z"/>
	</g>
</g>
</svg>
