<?xml version="1.0" encoding="UTF-8"?>
<svg width="100%" height="100%" viewBox="0 0 24 24" version="1.1" xmlns="http://www.w3.org/2000/svg" xmlns:xlink="http://www.w3.org/1999/xlink">
    <g id="edit_icon" stroke="none" stroke-width="1" fill="none" fill-rule="evenodd">
        <g>
            <rect id="Rectangle" x="0" y="0" width="24" height="24"></rect>
            <path d="M4.9037088,19.0962912 L6.61084897,14.8284408 L6.71979194,14.7195479 L15.4146699,6.02866991 C16.1195631,5.3237767 17.2624369,5.3237767 17.9673301,6.02866991 C18.6776945,6.73903435 18.6774299,7.88713065 17.9641884,8.59095323 C17.164966,9.38078972 15.7926113,10.750399 14.0098639,12.5356752 C13.9973548,12.548202 13.9973548,12.548202 13.9848459,12.560729 C12.9542361,13.5928263 11.8515151,14.6986941 10.7498224,15.8045687 C10.3642246,16.1916302 10.1256056,16.4312416 9.68519051,16.8735883 C9.35495665,17.2053354 9.35495665,17.2053354 9.28164471,17.2790122 L9.17237656,17.3888241 L4.9037088,19.0962912 Z" id="Stroke-52" stroke="currentColor" stroke-width="1.5" stroke-linecap="round" stroke-linejoin="round"></path>
            <path d="M7.5,15 L9,16.5" id="Stroke-54" stroke="currentColor" stroke-width="1.5" stroke-linecap="round" stroke-linejoin="round"></path>
            <path d="M14.5,8 L16,9.5" id="Stroke-56" stroke="currentColor" stroke-width="1.5" stroke-linecap="round" stroke-linejoin="round"></path>
        </g>
    </g>
</svg>
