<svg viewBox="0 0 24 24" focusable="false" role="presentation">
    <path d="M6.54559726,13.125842 L6.83611185,12.8354611 L15.5307864,4.14478644 C16.723835,2.95173785 18.658165,2.95173785 19.8512136,4.14478645 C21.0516127,5.34518564 21.0495462,7.28926755 19.8428358,8.48004196 C19.0692165,9.244576 17.7334721,10.5772248 15.8943749,12.4189306 C14.8792696,13.4355009 13.787576,14.5302053 12.6353787,15.6867762 C12.2608219,16.0627548 12.0254407,16.2991077 11.5710824,16.7554587 C11.2763215,17.0515704 11.2763215,17.0515704 11.2028062,17.1254384 L10.8763375,17.4535309 L3.65989013,20.3401098 L6.54559726,13.125842 Z M9.74999995,15.7500001 L9.78512698,15.714699 C9.85888091,15.6405913 9.85888091,15.6405913 10.1537087,15.3444124 C10.6082668,14.8878607 10.843784,14.6513713 11.2184887,14.2752442 C12.3712097,13.1181475 13.4634477,12.0228972 14.4541347,11.0307802 L14.4791581,11.0057211 C16.3212169,9.16104938 17.6593548,7.82601266 18.4375266,7.05697992 C18.8533955,6.64660293 18.8541082,5.97610824 18.437,5.559 C18.025,5.147 17.357,5.147 16.9448373,5.55916267 L8.25,14.25 L7.24999999,16.75 L9.74999995,15.7500001 Z" fill="currentColor"></path>
    <polygon points="7.79289322 14.7071068 9.20710678 13.2928932 10.7071068 14.7928932 9.29289322 16.2071068" fill="currentColor"></polygon>
    <polygon points="14.7928932 7.70710678 16.2071068 6.29289322 17.7071068 7.79289322 16.2928932 9.20710678" fill="currentColor"></polygon>
</svg>