<?xml version="1.0" encoding="UTF-8"?>
<svg width="24px" height="24px" viewBox="0 0 24 24" version="1.1" xmlns="http://www.w3.org/2000/svg" xmlns:xlink="http://www.w3.org/1999/xlink">
    <g id="systems_icon" stroke="none" stroke-width="1" fill="none" fill-rule="evenodd">
        <g>
            <rect id="Rectangle-Copy-2" x="0" y="0" width="24" height="24"></rect>
            <path d="M20.0424734,12 C20.0424734,7.55827498 16.4417662,3.95753522 12.0000813,3.95753522 C7.55836256,3.95753522 3.95752657,7.55830882 3.95752657,12 C3.95752657,16.4416912 7.55836256,20.0424648 12.0000813,20.0424648 C16.4417662,20.0424648 20.0424734,16.441725 20.0424734,12 Z M21,12 C21,16.9705571 16.9705935,21 12.0000813,21 C7.02954089,21 3,16.9705289 3,12 C3,7.02947107 7.02954089,3 12.0000813,3 C16.9705935,3 21,7.02944288 21,12 Z M11.8566149,8.75923108 C11.4630575,8.75923108 11.1412522,9.09544352 11.1412522,9.50533168 C11.1412522,9.90419889 11.4674042,10.2361479 11.8566149,10.2361479 C12.2506298,10.2361479 12.5874245,9.89938119 12.5874245,9.50533168 C12.5874245,9.09130258 12.2610713,8.75923108 11.8566149,8.75923108 Z M11.8566149,7.80169586 C12.7936554,7.80169586 13.5449511,8.56615576 13.5449511,9.50533168 C13.5449511,10.4282331 12.7794373,11.1936831 11.8566149,11.1936831 C10.9347661,11.1936831 10.1837257,10.4292937 10.1837257,9.50533168 C10.1837257,8.57576369 10.9246235,7.80169586 11.8566149,7.80169586 Z M11.8566149,13.1995206 C11.1564291,13.1995206 10.5900421,13.7658763 10.5900421,14.4661049 C10.5900421,15.1662339 11.1564922,15.7326891 11.8566149,15.7326891 C12.5568372,15.7326891 13.1231877,15.166297 13.1231877,14.4661049 C13.1231877,13.7658132 12.5569002,13.1995206 11.8566149,13.1995206 Z M11.8566149,12.2419854 C13.0857276,12.2419854 14.0807143,13.2369811 14.0807143,14.4661049 C14.0807143,15.6951153 13.0856783,16.6902243 11.8566149,16.6902243 C10.6276649,16.6902243 9.63251555,15.695066 9.63251555,14.4661049 C9.63251555,13.2370304 10.6276156,12.2419854 11.8566149,12.2419854 Z M16.1171023,14.4661049 C16.1171023,16.7571828 14.1687921,18.6193145 11.8566149,18.6193145 C9.54454686,18.6193145 7.59612754,16.7571331 7.59612754,14.4661049 C7.59612754,13.237984 8.09506253,12.2071359 9.0181747,11.5201598 C8.51434249,10.9033974 8.26977458,10.2644255 8.26977458,9.47476282 C8.26977458,7.44736745 9.83373464,5.87260566 11.8566149,5.87260566 C13.8817588,5.87260566 15.4587395,7.44965778 15.4587395,9.47476282 C15.4587395,10.2718036 15.2126997,10.8996494 14.6969626,11.5215412 C15.6189064,12.2084825 16.1171023,13.2387392 16.1171023,14.4661049 Z M11.8566149,17.6617793 C13.6494143,17.6617793 15.1595757,16.2184159 15.1595757,14.4661049 C15.1595757,13.3761138 14.6656167,12.5350006 13.7307383,12.041772 L13.149083,11.7348988 L13.6198005,11.2756372 C14.2450339,10.6656203 14.501213,10.1697862 14.501213,9.47476282 C14.501213,7.97848211 13.3529237,6.83014088 11.8566149,6.83014088 C10.364041,6.83014088 9.22730115,7.97473175 9.22730115,9.47476282 C9.22730115,10.1690441 9.48539062,10.6823965 10.0934293,11.2756372 L10.5641168,11.7348694 L9.98251726,12.0417584 C9.0476905,12.5350326 8.55365411,13.3762171 8.55365411,14.4661049 C8.55365411,16.2183596 10.0639188,17.6617793 11.8566149,17.6617793 Z" id="Combined-Shape" fill="currentColor" fill-rule="nonzero"></path>
        </g>
    </g>
</svg>
