<svg viewBox="0 0 24 24" focusable="false" role="presentation">
  <path d="M11,16c-0.128,0-0.256-0.049-0.354-0.146l-4-4c-0.195-0.195-0.195-0.512,0-0.707s0.512-0.195,0.707,0L11,14.793
  			l6.646-6.646c0.195-0.195,0.512-0.195,0.707,0s0.195,0.512,0,0.707l-7,7C11.256,15.951,11.128,16,11,16z" fill="currentColor" />
  <path d="M12,24c-0.05,0-0.1-0.007-0.148-0.022C8.242,22.855,1.5,18.922,1.5,14.5v-11c0-0.221,0.145-0.416,0.356-0.479l10-3
  			c0.094-0.028,0.193-0.028,0.287,0l10,3C22.355,3.085,22.5,3.279,22.5,3.5v11c0,4.422-6.742,8.354-10.352,9.478
  			C12.1,23.993,12.05,24,12,24z M2.5,3.872V14.5c0,3.511,5.563,7.203,9.5,8.476c3.937-1.273,9.5-4.965,9.5-8.476V3.872L12,1.022
  			L2.5,3.872z" fill="currentColor" />
</svg>
