<?xml version="1.0" encoding="UTF-8"?>
<svg width="23px" height="22px" viewBox="0 0 23 22" focusable="false" role="presentation">
  <g stroke="none" stroke-width="1" fill="none" fill-rule="evenodd" stroke-linecap="round" stroke-linejoin="round">
    <g transform="translate(-1295.000000, -20.000000)" stroke="currentColor" stroke-width="1.5">
      <g transform="translate(0.000000, -1.000000)">
        <g>
          <path d="M1306.50248,35.9130435 C1304.28459,35.9130435 1302.4797,34.1573913 1302.4797,32 C1302.4797,29.8426087 1304.28459,28.0869565 1306.50248,28.0869565 C1308.72037,28.0869565 1310.52526,29.8426087 1310.52526,32 C1310.52526,34.1573913 1308.72037,35.9130435 1306.50248,35.9130435 L1306.50248,35.9130435 Z M1314.1404,32.98 C1314.18152,32.66 1314.21281,32.34 1314.21281,32 C1314.21281,31.66 1314.18152,31.34 1314.1404,31.02 L1316.31001,29.3704348 C1316.50489,29.22 1316.55674,28.9504348 1316.43338,28.7304348 L1314.37729,25.2704348 C1314.25393,25.0504348 1313.97591,24.9704348 1313.74974,25.0504348 L1311.19036,26.0504348 C1310.65578,25.6504348 1310.08007,25.32 1309.45252,25.0704348 L1309.06186,22.42 C1309.03147,22.18 1308.81513,22 1308.55857,22 L1304.4464,22 C1304.18894,22 1303.9735,22.18 1303.94221,22.42 L1303.55155,25.0704348 C1302.92489,25.32 1302.34919,25.66 1301.81461,26.0504348 L1299.25433,25.0504348 C1299.01833,24.96 1298.75104,25.0504348 1298.62767,25.2704348 L1296.57159,28.7304348 C1296.43749,28.9504348 1296.49918,29.22 1296.69495,29.3704348 L1298.86368,31.02 C1298.82255,31.34 1298.79216,31.6704348 1298.79216,32 C1298.79216,32.3304348 1298.82255,32.66 1298.86368,32.98 L1296.69495,34.6304348 C1296.49918,34.78 1296.44822,35.0504348 1296.57159,35.2704348 L1298.62767,38.7304348 C1298.75104,38.9504348 1299.02816,39.0304348 1299.25433,38.9504348 L1301.81461,37.9504348 C1302.34919,38.3504348 1302.92489,38.68 1303.55155,38.9304348 L1303.94221,41.58 C1303.9735,41.82 1304.18894,42 1304.4464,42 L1308.55857,42 C1308.81513,42 1309.03147,41.82 1309.06186,41.58 L1309.45252,38.9304348 C1310.08007,38.68 1310.65578,38.34 1311.19036,37.9504348 L1313.74974,38.9504348 C1313.98664,39.04 1314.25393,38.9504348 1314.37729,38.7304348 L1316.43338,35.2704348 C1316.55674,35.0504348 1316.50489,34.78 1316.31001,34.6304348 L1314.1404,32.98 L1314.1404,32.98 Z"></path>
        </g>
      </g>
    </g>
  </g>
</svg>
