<svg viewBox="0 0 22 24" focusable="false" aria-hidden="true" role="presentation">
  <path fill="currentColor" fill-rule="evenodd" d=" M13.1,2.7L18.1,5.6C18.3,5.4,18.4,5.3,18.6,5.2C19.7,4.6,21,5,21.6,6C22.2,7,21.9,8.3,20.8,8.9C20.6,9,20.4,9.1,20.2,9.1L20.2,14.8C20.4,14.9,20.6,15,20.8,15.1C21.9,15.7,22.2,17,21.6,18C21,19,19.7,19.3,18.6,18.8C18.4,18.6,18.2,18.5,18.1,18.3L13,21.2C13.1,21.4,13.2,21.6,13.2,21.8C13.2,23,12.2,24,11,24C9.7,24,8.8,23,8.8,21.8C8.8,21.6,8.8,21.4,8.9,21.2L3.8,18.4C3.6,18.5,3.5,18.7,3.3,18.8C2.2,19.3,0.9,19,0.3,18C-0.3,17,0.1,15.7,1.1,15.1C1.3,15,1.5,14.9,1.7,14.8L1.7,9.1C1.5,9.1,1.3,9,1.1,8.9C0,8.3,-0.3,7,0.3,6C0.9,5,2.2,4.6,3.3,5.2C3.5,5.3,3.6,5.4,3.8,5.6L8.9,2.7C8.8,2.5,8.8,2.3,8.8,2.1C8.8,1,9.7,0,11,0C12.2,0,13.2,1,13.2,2.1C13.2,2.3,13.1,2.6,13.1,2.7ZM12.5,3.6L17.6,6.5C17.4,7,17.5,7.6,17.8,8.1C18.1,8.7,18.6,9,19.2,9.1L19.2,14.8C19.2,14.8,19.1,14.8,19.1,14.9L12.5,3.7C12.5,3.7,12.5,3.6,12.5,3.6L12.5,3.6ZM9.4,3.7L2.8,14.9C2.8,14.8,2.8,14.8,2.7,14.8L2.7,9.1C3.3,9,3.8,8.7,4.1,8.1C4.4,7.6,4.5,7,4.3,6.5L9.4,3.6C9.4,3.6,9.4,3.7,9.4,3.7L9.4,3.7ZM11.6,4.2L18.2,15.4C18,15.5,17.9,15.7,17.8,15.8C17.7,16,17.6,16.2,17.6,16.4L4.3,16.4C4.3,16.2,4.2,16,4.1,15.8C4,15.7,3.9,15.5,3.7,15.4L10.3,4.2C10.5,4.2,10.8,4.3,11,4.3C11.2,4.3,11.4,4.2,11.6,4.2ZM12.6,20.4L17.6,17.6C17.6,17.5,17.6,17.5,17.6,17.4L4.3,17.4C4.3,17.4,4.3,17.5,4.3,17.5L9.4,20.4C9.8,19.9,10.4,19.7,11,19.7C11.6,19.7,12.2,19.9,12.6,20.4Z"></path>
</svg>