<?xml version="1.0" encoding="UTF-8"?>
<svg width="23px" height="25px" viewBox="0 0 23 25" version="1.1" xmlns="http://www.w3.org/2000/svg" xmlns:xlink="http://www.w3.org/1999/xlink">
    <!-- Generator: sketchtool 52.3 (67297) - http://www.bohemiancoding.com/sketch -->
    <title>EAEBCCAB-2F84-4745-9B9F-4B26BD72AFEF</title>
    <desc>Created with sketchtool.</desc>
    <g id="Page-1" stroke="none" stroke-width="1" fill="none" fill-rule="evenodd">
        <g id="Home-Onboarding-" transform="translate(-20.000000, -187.000000)">
            <g id="Logic-Icon" transform="translate(12.000000, 181.000000)">
                <g>
                    <rect id="Rectangle" x="0" y="0" width="38" height="38"></rect>
                    <g id="Group-3" transform="translate(8.000000, 7.000000)" fill="currentColor">
                        <path d="M4.57506272,14.0406565 C4.31893332,14.0406565 4.11106018,13.9306565 4.11106018,13.7906565 L4.11106018,9.29065654 C4.11106018,9.15065654 4.31893332,9.04065654 4.57506272,9.04065654 C4.83119213,9.04065654 5.03906527,9.15065654 5.03906527,9.29065654 L5.03906527,13.7906565 C5.03906527,13.9306565 4.83119213,14.0406565 4.57506272,14.0406565" id="Fill-6690"></path>
                        <path d="M4.57506272,14.1670006 C4.45627807,14.1670006 4.33749342,14.1213689 4.24654892,14.0301055 L2.39053873,12.2048367 C2.20957774,12.0314361 2.20957774,11.7393931 2.39053873,11.5659926 C2.57242773,11.3834657 2.86567734,11.3834657 3.04756634,11.5659926 L4.57506272,13.062713 L6.10255911,11.5659926 C6.28444811,11.3834657 6.57769772,11.3834657 6.75958671,11.5659926 C6.94054771,11.7393931 6.94054771,12.0314361 6.75958671,12.2048367 L4.90357653,14.0301055 C4.81263203,14.1213689 4.69384738,14.1670006 4.57506272,14.1670006" id="Fill-6693"></path>
                        <path d="M14.8477418,23.7000286 C14.5947418,23.7000286 14.3894085,23.5171164 14.3894085,23.284319 L14.3894085,15.8015466 C14.3894085,15.5687492 14.5947418,15.385837 14.8477418,15.385837 C15.1007418,15.385837 15.3060752,15.5687492 15.3060752,15.8015466 L15.3060752,23.284319 C15.3060752,23.5171164 15.1007418,23.7000286 14.8477418,23.7000286" id="Fill-6690" transform="translate(14.847742, 19.542933) rotate(-270.000000) translate(-14.847742, -19.542933) "></path>
                        <path d="M18.0727324,19.6389885 L18.0727324,14.6297221 C18.0727324,14.4559167 18.2815239,14.3193552 18.538785,14.3193552 C18.796046,14.3193552 19.0048376,14.4559167 19.0048376,14.6297221 L19.0048376,19.6389885 C19.0048376,19.8127939 18.796046,19.9493554 18.538785,19.9493554 C18.2815239,19.9493554 18.0727324,19.8127939 18.0727324,19.6389885 Z" id="Fill-6690"></path>
                        <path d="M11.7413243,20.9349405 C11.6378621,20.9349405 11.5344,20.8885402 11.4551867,20.7957397 L9.83859047,18.9397295 C9.68097233,18.7634085 9.68097233,18.4664469 9.83859047,18.2901259 C9.9970169,18.1045249 10.2524391,18.1045249 10.4108655,18.2901259 L11.7413243,19.8120543 L13.071783,18.2901259 C13.2302094,18.1045249 13.4856317,18.1045249 13.6440581,18.2901259 C13.8016762,18.4664469 13.8016762,18.7634085 13.6440581,18.9397295 L12.0274618,20.7957397 C11.9482486,20.8885402 11.8447864,20.9349405 11.7413243,20.9349405" id="Fill-6693" transform="translate(11.741324, 19.542933) rotate(-270.000000) translate(-11.741324, -19.542933) "></path>
                        <rect id="Rectangle" stroke="currentColor" stroke-width="1.5" fill-opacity="0.1" stroke-linecap="square" x="0.943483777" y="0.0932957811" width="7.26315789" height="7.14285714" rx="0.00121"></rect>
                        <rect id="Rectangle-Copy" stroke="currentColor" stroke-width="1.5" fill-opacity="0.1" stroke-linecap="square" x="0.943483777" y="15.9789506" width="7.26315789" height="7.14285714" rx="0.00121"></rect>
                        <path d="M14.8459549,5.25 L22.1088025,5.25 C22.1088565,5.25 22.108876,5.25000562 22.1088958,5.25001616 C22.1089155,5.25002671 22.1089309,5.25004218 22.1089415,5.2500619 C22.108952,5.25008162 22.1089577,5.25010118 22.1089577,5.25015512 L22.1089577,12.392702 C22.1089577,12.392756 22.108952,12.3927755 22.1089415,12.3927952 C22.1089309,12.392815 22.1089155,12.3928304 22.1088958,12.392841 C22.108876,12.3928515 22.1088565,12.3928571 22.1088025,12.3928571 L14.8459549,12.3928571 C14.8459009,12.3928571 14.8458814,12.3928515 14.8458617,12.392841 C14.8458419,12.3928304 14.8458265,12.392815 14.8458159,12.3927952 C14.8458054,12.3927755 14.8457998,12.392756 14.8457998,12.392702 L14.8457998,5.25015512 C14.8457998,5.25010118 14.8458054,5.25008162 14.8458159,5.2500619 C14.8458265,5.25004218 14.8458419,5.25002671 14.8458617,5.25001616 C14.8458814,5.25000562 14.8459009,5.25 14.8459549,5.25 Z" id="Rectangle-Copy-2" stroke="currentColor" stroke-width="1.5" fill-opacity="0.1" stroke-linecap="square"></path>
                    </g>
                </g>
            </g>
        </g>
    </g>
</svg>
