<svg width="8" height="8" viewBox="0 0 8 8" fill="none" xmlns="http://www.w3.org/2000/svg">
    <path d="M1.99849 2C1.99849 1.60444 2.11579 1.21776 2.33555 0.88886C2.55531 0.559962 2.86767 0.303617 3.23312 0.152242C3.59857 0.000866562 4.00071 -0.0387401 4.38867 0.0384303C4.77663 0.115601 5.133 0.306082 5.4127 0.585787C5.69241 0.865492 5.88289 1.22186 5.96006 1.60982C6.03723 1.99778 5.99762 2.39992 5.84625 2.76537C5.69487 3.13082 5.43853 3.44318 5.10963 3.66294C4.78073 3.8827 4.39405 4 3.99849 4C3.46805 4 2.95935 3.78929 2.58427 3.41421C2.2092 3.03914 1.99849 2.53043 1.99849 2ZM7.94349 7.275L7.22349 5.83C7.09877 5.58018 6.90679 5.37013 6.66917 5.22349C6.43155 5.07685 6.15771 4.99945 5.87849 5H2.11849C1.83926 4.99945 1.56543 5.07685 1.32781 5.22349C1.09018 5.37013 0.898207 5.58018 0.773487 5.83L0.053487 7.275C0.015132 7.35112 -0.00312902 7.43577 0.000438164 7.52093C0.00400535 7.60609 0.0292823 7.68892 0.0738685 7.76156C0.118455 7.8342 0.18087 7.89424 0.255187 7.93597C0.329504 7.9777 0.413255 7.99974 0.498487 8H7.49849C7.58372 7.99974 7.66747 7.9777 7.74179 7.93597C7.8161 7.89424 7.87852 7.8342 7.92311 7.76156C7.96769 7.68892 7.99297 7.60609 7.99654 7.52093C8.0001 7.43577 7.98184 7.35112 7.94349 7.275Z" fill="#323C47"/>
</svg>
