<svg xmlns="http://www.w3.org/2000/svg" width="24" height="24" viewBox="0 0 24 24">
  <path fill="currentColor" fill-rule="evenodd" d="M10,18.6284545 C10,17.5244083 10.8952,16.6284545 12,16.6284545 C13.1048,16.6284545 14,17.5244083 14,18.6284545 C14,19.7333266 13.1048,20.6284545 12,20.6284545 C10.8952,20.6284545 10,19.7333266 10,18.6284545 Z M12,10.0123636 C13.1048,10.0123636 14,10.9076255 14,12.0123636 C14,13.1171018 13.1048,14.0123636 12,14.0123636 C10.8952,14.0123636 10,13.1171018 10,12.0123636 C10,10.9076255 10.8952,10.0123636 12,10.0123636 Z M10,5.37154545 C10,4.26667345 10.8952,3.37154545 12,3.37154545 C13.1048,3.37154545 14,4.26667345 14,5.37154545 C14,6.4755917 13.1048,7.37154545 12,7.37154545 C10.8952,7.37154545 10,6.4755917 10,5.37154545 Z"/>
</svg>
