<svg viewBox="0 0 24 24" focusable="false" role="presentation">
  <path d="M19.7763266,4.22367346 C17.7020408,2.14489796 14.9363266,1 12,1 C9.06367346,1 6.29795918,2.14489796 4.22367346,4.22367346 C2.14938776,6.30244898 1,9.06367346 1,12 C1,14.9363266 2.14489796,17.7020408 4.22367346,19.7763266 C6.30244898,21.8506122 9.06367346,23 12,23 C14.9363266,23 17.7020408,21.8551021 19.7763266,19.7763266 C21.8506122,17.697551 23,14.9363266 23,12 C23,9.06367346 21.8551021,6.29795918 19.7763266,4.22367346 Z M22.0032654,11.5061225 L17.7379591,11.5061225 C17.697551,9.8089796 17.4595918,8.17469388 17.0420408,6.72448979 C17.8546939,6.30693878 18.6134694,5.78163266 19.3093878,5.16204082 C20.8808163,6.84122449 21.8820408,9.05918367 22.0032654,11.5061225 Z M12.4938776,12.4938776 L16.7546939,12.4938776 C16.7187755,14.0563266 16.5032654,15.5514285 16.1306122,16.8893878 C14.9812245,16.4269388 13.7555102,16.157551 12.4938776,16.0991837 L12.4938776,12.4938776 Z M18.6,4.47510204 C18.0253061,4.98244898 17.3967346,5.41346939 16.7322449,5.77265306 C16.5616327,5.29673469 16.3685715,4.8477551 16.1530612,4.42571428 C15.7265306,3.58163266 15.2416327,2.89020409 14.707347,2.36040816 C16.1665306,2.7689796 17.4910204,3.50081633 18.6,4.47510204 Z M12.4938776,2.14040816 C13.5220408,2.36938776 14.4918367,3.3167347 15.2730612,4.86122449 C15.4840816,5.27877551 15.6726531,5.7232653 15.8387755,6.19469388 C14.7836734,6.63020408 13.6567346,6.88612245 12.4938776,6.94448979 L12.4938776,2.14040816 Z M16.1351021,7.14204082 C16.5032654,8.4710204 16.7142857,9.95714285 16.750204,11.5106122 L12.4938776,11.5106122 L12.4938776,7.9367347 C13.76,7.87836734 14.9857143,7.60448979 16.1351021,7.14204082 Z M11.5061225,11.5061225 L7.24530612,11.5061225 C7.28122449,9.95265306 7.4922449,8.46653061 7.86040816,7.13755102 C9.00979591,7.60448979 10.24,7.87387755 11.5016327,7.9277551 L11.5016327,11.5061225 L11.5061225,11.5061225 Z M11.5106122,2.14040816 L11.5106122,6.94448979 C10.3477551,6.88612245 9.21632654,6.63020408 8.16571428,6.19469388 C8.33183673,5.7232653 8.52040816,5.27877551 8.73142857,4.86122449 C9.51265306,3.3167347 10.482449,2.36938776 11.5106122,2.14040816 Z M9.29714285,2.36040816 C8.76285715,2.89020409 8.27795918,3.58612245 7.85142857,4.42571428 C7.64040816,4.8477551 7.44734694,5.29673469 7.2722449,5.77265306 C6.6077551,5.41346939 5.98367346,4.98244898 5.40448979,4.47510204 C6.51346939,3.50081633 7.83795918,2.7689796 9.29714285,2.36040816 Z M4.69510204,5.16204082 C5.3910204,5.78163266 6.14979592,6.30244898 6.96244898,6.72448979 C6.54489796,8.17918367 6.30244898,9.8089796 6.26653061,11.5061225 L2.00122449,11.5061225 C2.12244898,9.05918367 3.12367346,6.84122449 4.69510204,5.16204082 Z M2.00122449,12.4938776 L6.26653061,12.4938776 C6.30693878,14.2044898 6.54938776,15.8432654 6.97142857,17.302449 C6.16326531,17.72 5.40448979,18.2363266 4.71306122,18.8559184 C3.12816327,17.1722449 2.12244898,14.949796 2.00122449,12.4938776 Z M5.42244898,19.5428572 C5.99714285,19.04 6.62122449,18.6089796 7.28122449,18.2542857 C7.45183673,18.7167346 7.64040816,19.1612245 7.85142857,19.5742857 C8.27795918,20.4183673 8.76285715,21.109796 9.29714285,21.6440816 C7.84693878,21.2355102 6.52693878,20.5081633 5.42244898,19.5428572 Z M11.5106122,21.8595918 C10.482449,21.6306122 9.51265306,20.6832654 8.73142857,19.1387755 C8.52489796,18.730204 8.34081633,18.2946939 8.17469388,17.8322449 C9.22530612,17.3967346 10.3522449,17.1408163 11.5106122,17.0869388 L11.5106122,21.8595918 Z M7.87387755,16.8893878 C7.50122449,15.5514285 7.28571428,14.0563266 7.24979591,12.4938776 L11.5106122,12.4938776 L11.5106122,16.0991837 C10.2489796,16.1530612 9.02326531,16.422449 7.87387755,16.8893878 Z M12.4983673,21.8595918 L12.4983673,17.0869388 C13.6567346,17.1453061 14.7836734,17.3967346 15.8342857,17.8322449 C15.6681633,18.2946939 15.4840816,18.730204 15.277551,19.1387755 C14.4963266,20.6832654 13.5265306,21.6306122 12.4983673,21.8595918 Z M14.7118367,21.6395918 C15.2461224,21.109796 15.7310204,20.4138776 16.157551,19.569796 C16.3685715,19.1567346 16.5571428,18.7122449 16.7277551,18.249796 C17.3877551,18.6044898 18.0118367,19.0355102 18.5865306,19.5383673 C17.4820409,20.5081633 16.1620409,21.2355102 14.7118367,21.6395918 Z M19.3004082,18.8559184 C18.6089796,18.2408163 17.850204,17.72 17.0420408,17.302449 C17.4640816,15.8432654 17.7065306,14.2 17.7469388,12.4938776 L22.0122449,12.4938776 C21.8865306,14.949796 20.8808163,17.1722449 19.3004082,18.8559184 Z" fill="currentColor" fillRule="evenodd"></path>
</svg>
