<svg xmlns="http://www.w3.org/2000/svg" viewBox="0 0 24 24">
  <path fill="currentColor" fill-rule="evenodd" d="M21.3178364,14.685005 L14.6848458,14.685005 L14.6848458,21.3163368 C14.6848458,22.7977189 13.4832365,24 12,24 C10.5167635,24 9.31515422,22.7977189 9.31515422,21.3163368 L9.31515422,14.685005 L2.68484578,14.685005 C1.2016093,14.685005 0,13.4854076 0,12.0013418 C0,10.5199597 1.2016093,9.31767863 2.68484578,9.31767863 L9.31515422,9.31767863 L9.31515422,2.68634686 C9.31515422,1.20228111 10.5167635,0 12,0 C13.4832365,0 14.6848458,1.20228111 14.6848458,2.68634686 L14.6848458,9.31767863 L21.3178364,9.31767863 C22.7983907,9.31767863 24,10.5199597 24,12.0013418 C24,13.4854076 22.7983907,14.685005 21.3178364,14.685005 L21.3178364,14.685005 Z"/>
</svg>
