<?xml version="1.0" encoding="UTF-8"?>
<svg width="24px" height="24px" viewBox="0 0 24 24" version="1.1" xmlns="http://www.w3.org/2000/svg" xmlns:xlink="http://www.w3.org/1999/xlink">
    <g id="schema_icon" stroke="none" stroke-width="1" fill="none" fill-rule="evenodd">
        <g>
            <rect id="Rectangle-Copy-3" x="0" y="0" width="24" height="24"></rect>
            <g id="Gear-&amp;-Data" stroke-linecap="round" stroke-linejoin="round" transform="translate(3.000000, 4.000000)" stroke="currentColor">
                <path d="M7.82608696,9.00041107 L7.82608696,15.7504111 C7.82608696,16.5784111 6.07382609,17.2504111 3.91304348,17.2504111 C1.75226087,17.2504111 0,16.5784111 0,15.7504111 L0,9.00041107" id="Stroke-4693" stroke-width="0.9"></path>
                <path d="M9.39130435,13.6805611 C9.6026087,13.6805611 9.81078261,13.6693111 10.0166087,13.6490611 C10.598087,13.5905611 11.1333913,13.9468111 11.2296522,14.5003111 C11.3454783,15.1655611 12.0826957,15.5390611 12.7330435,15.2765611 C13.3982609,15.0080611 14.0204348,14.6623111 14.5886087,14.2498111 C15.1489565,13.8425611 15.177913,13.0438111 14.634,12.6155611 L14.634,12.6148111 C14.1847826,12.2600611 14.1284348,11.6405611 14.4673043,11.1883111 C14.7122609,10.8613111 14.9235652,10.5103111 15.0973043,10.1390611 C15.3313043,9.63656107 15.9307826,9.37031107 16.4692174,9.56381107 L16.4770435,9.56681107 C17.1352174,9.80231107 17.8403478,9.38231107 17.9303478,8.71406107 C17.9757391,8.37581107 18,8.03081107 18,7.68056107 C18,7.33031107 17.9757391,6.98531107 17.9303478,6.64706107 C17.8403478,5.97956107 17.1352174,5.55881107 16.4770435,5.79431107 L16.4692174,5.79806107 C15.9307826,5.99081107 15.3313043,5.72456107 15.0973043,5.22206107 C14.9235652,4.85081107 14.7122609,4.49981107 14.4673043,4.17281107 C14.1284348,3.72056107 14.1847826,3.10106107 14.634,2.74631107 L14.634,2.74556107 C15.177913,2.31731107 15.1489565,1.51931107 14.5886087,1.11131107 C14.0204348,0.698811071 13.3982609,0.353061071 12.7330435,0.0845610713 C12.0826957,-0.177938929 11.3454783,0.195561071 11.2296522,0.861561071 C11.1333913,1.41431107 10.598087,1.77056107 10.0166087,1.71206107 C9.81078261,1.69181107 9.6026087,1.68056107 9.39130435,1.68056107 C9.18,1.68056107 8.97104348,1.69181107 8.766,1.71206107 C8.18452174,1.77056107 7.64921739,1.41431107 7.55295652,0.861561071 C7.43713043,0.195561071 6.69991304,-0.177938929 6.04956522,0.0845610713 C5.38434783,0.353061071 4.76217391,0.698811071 4.194,1.11131107 C3.63365217,1.51931107 3.60469565,2.31731107 4.1486087,2.74556107 L4.1486087,2.74631107 C4.59782609,3.10106107 4.65417391,3.72056107 4.31452174,4.17281107 C4.07034783,4.49981107 3.85904348,4.85081107 3.68530435,5.22206107 C3.45130435,5.72456107 2.85182609,5.99081107 2.3133913,5.79806107 L2.30556522,5.79431107 C1.72486957,5.58656107 1.10895652,5.89031107 0.910173913,6.42281107" id="Stroke-4691"></path>
                <path d="M7.82608696,9.00041107 C7.82608696,9.82841107 6.07382609,10.5004111 3.91304348,10.5004111 C1.75226087,10.5004111 0,9.82841107 0,9.00041107 C0,8.17241107 1.75226087,7.50041107 3.91304348,7.50041107 C6.07382609,7.50041107 7.82608696,8.17241107 7.82608696,9.00041107 Z" id="Stroke-4683" stroke-width="0.9"></path>
                <path d="M7.82608696,11.2504111 C7.82608696,12.0784111 6.07382609,12.7504111 3.91304348,12.7504111 C1.75226087,12.7504111 0,12.0784111 0,11.2504111" id="Stroke-4685" stroke-width="0.9"></path>
                <path d="M7.82608696,13.5004111 C7.82608696,14.3284111 6.07382609,15.0004111 3.91304348,15.0004111 C1.75226087,15.0004111 0,14.3284111 0,13.5004111" id="Stroke-4687" stroke-width="0.9"></path>
                <path d="M9.39130435,10.6805611 C11.120087,10.6805611 12.5217391,9.33731107 12.5217391,7.68056107 C12.5217391,6.02381107 11.120087,4.68056107 9.39130435,4.68056107 C8.17278261,4.68056107 7.128,5.35481107 6.61147826,6.32831107" id="Stroke-4689" stroke-width="0.9"></path>
            </g>
        </g>
    </g>
</svg>
