<?xml version="1.0" encoding="UTF-8"?>
<svg width="26px" height="24px" viewBox="0 0 26 24" version="1.1" xmlns="http://www.w3.org/2000/svg" xmlns:xlink="http://www.w3.org/1999/xlink">
    <g id="Page-1" stroke="none" stroke-width="1" fill="none" fill-rule="evenodd">
        <g id="Home-Onboarding-" transform="translate(-18.000000, -353.000000)" fill="currentColor">
            <g id="App-Settings-Icon" transform="translate(12.000000, 346.000000)">
                <g id="Group-2">
                    <g id="App-Settings" transform="translate(6.000000, 8.000000)">
                        <g id="Group">
                            <path d="M20.1144506,1.75 C20.0400885,1.98676031 20,2.23869857 20,2.5 C20,2.76130143 20.0400885,3.01323969 20.1144506,3.25 L0.75,3.25 L0.75,1.75 L20.1144506,1.75 Z M24.8855494,1.75 L25.25,1.75 L25.25,3.25 L24.8855494,3.25 C24.9599115,3.01323969 25,2.76130143 25,2.5 C25,2.23869857 24.9599115,1.98676031 24.8855494,1.75 Z" id="Combined-Shape" fill-rule="nonzero"></path>
                            <circle id="Oval-Copy-2" stroke="currentColor" stroke-width="1.5" fill-opacity="0.1" cx="22.5" cy="2.5" r="2.5"></circle>
                            <path d="M1.11445057,18.75 C1.04008846,18.9867603 1,19.2386986 1,19.5 C1,19.7613014 1.04008846,20.0132397 1.11445057,20.25 L0.75,20.25 L0.75,18.75 L1.11445057,18.75 Z M5.88554943,18.75 L25.25,18.75 L25.25,20.25 L5.88554943,20.25 C5.95991154,20.0132397 6,19.7613014 6,19.5 C6,19.2386986 5.95991154,18.9867603 5.88554943,18.75 Z" id="Combined-Shape" fill-rule="nonzero"></path>
                            <circle id="Oval-Copy-3" stroke="currentColor" stroke-width="1.5" fill-opacity="0.1" cx="3.5" cy="19.5" r="2.5"></circle>
                            <path d="M10.1144506,9.75 C10.0400885,9.98676031 10,10.2386986 10,10.5 C10,10.7613014 10.0400885,11.0132397 10.1144506,11.25 L0.75,11.25 L0.75,9.75 L10.1144506,9.75 Z M14.8855494,9.75 L25.25,9.75 L25.25,11.25 L14.8855494,11.25 C14.9599115,11.0132397 15,10.7613014 15,10.5 C15,10.2386986 14.9599115,9.98676031 14.8855494,9.75 Z" id="Combined-Shape" fill-rule="nonzero"></path>
                            <circle id="Oval-Copy" stroke="currentColor" stroke-width="1.5" fill-opacity="0.1" cx="12.5" cy="10.5" r="2.5"></circle>
                        </g>
                    </g>
                </g>
            </g>
        </g>
    </g>
</svg>
