<svg viewBox="0 0 24 24" focusable="false" role="presentation">
	<path d="M12,23.5C5.659,23.5,0.5,18.341,0.5,12S5.659,0.5,12,0.5S23.5,5.659,23.5,12S18.341,23.5,12,23.5z M12,1.5
		C6.21,1.5,1.5,6.21,1.5,12S6.21,22.5,12,22.5S22.5,17.79,22.5,12S17.79,1.5,12,1.5z" fill="currentColor" />
	<path d="M20,19.5H4c-0.276,0-0.5-0.224-0.5-0.5s0.224-0.5,0.5-0.5h16c0.276,0,0.5,0.224,0.5,0.5S20.276,19.5,20,19.5z" fill="currentColor" />
	<path d="M15,19.5c-0.276,0-0.5-0.224-0.5-0.5c0-1.378-1.121-2.5-2.5-2.5S9.5,17.622,9.5,19c0,0.276-0.224,0.5-0.5,0.5
		S8.5,19.276,8.5,19c0-1.93,1.57-3.5,3.5-3.5s3.5,1.57,3.5,3.5C15.5,19.276,15.276,19.5,15,19.5z" fill="currentColor" />
	<path d="M11,16.5c-0.183,0-0.359-0.101-0.447-0.276l-4-8C6.43,7.977,6.529,7.676,6.776,7.553C7.024,7.43,7.323,7.529,7.447,7.776
		l4,8c0.123,0.247,0.023,0.547-0.224,0.671C11.151,16.483,11.075,16.5,11,16.5z" fill="currentColor" />
	<path d="M12,4.5c-0.276,0-0.5-0.224-0.5-0.5V1c0-0.276,0.224-0.5,0.5-0.5s0.5,0.224,0.5,0.5v3C12.5,4.276,12.276,4.5,12,4.5z" fill="currentColor" />
	<path d="M6,6.5c-0.183,0-0.359-0.101-0.447-0.276l-1-2C4.43,3.977,4.529,3.676,4.776,3.553C5.024,3.43,5.323,3.529,5.447,3.776
		l1,2C6.57,6.023,6.471,6.324,6.224,6.447C6.151,6.483,6.075,6.5,6,6.5z" fill="currentColor" />
	<path d="M9,5C8.802,5,8.614,4.881,8.536,4.686l-1-2.5c-0.103-0.256,0.021-0.547,0.278-0.65c0.255-0.104,0.547,0.022,0.649,0.279
		l1,2.5c0.103,0.256-0.021,0.547-0.278,0.65C9.125,4.989,9.062,5,9,5z" fill="currentColor" />
	<path d="M4,8.5c-0.128,0-0.256-0.049-0.354-0.146l-1.5-1.5c-0.195-0.195-0.195-0.512,0-0.707s0.512-0.195,0.707,0l1.5,1.5
		c0.195,0.195,0.195,0.512,0,0.707C4.256,8.451,4.128,8.5,4,8.5z" fill="currentColor" />
	<path d="M3,11.5c-0.096,0-0.192-0.027-0.277-0.084l-1.5-1c-0.229-0.153-0.292-0.463-0.139-0.693
		c0.153-0.23,0.465-0.291,0.693-0.139l1.5,1c0.229,0.153,0.292,0.463,0.139,0.693C3.319,11.422,3.161,11.5,3,11.5z" fill="currentColor" />
	<path d="M3,14c-0.053,0-0.105-0.008-0.158-0.026l-1.5-0.5c-0.262-0.087-0.403-0.37-0.316-0.632
		c0.089-0.262,0.373-0.401,0.633-0.316l1.5,0.5c0.262,0.087,0.403,0.37,0.316,0.632C3.404,13.868,3.209,14,3,14z" fill="currentColor" />
	<path d="M18,6.5c-0.075,0-0.151-0.017-0.224-0.053c-0.247-0.124-0.347-0.424-0.224-0.671l1-2c0.125-0.248,0.424-0.345,0.671-0.224
		c0.247,0.124,0.347,0.424,0.224,0.671l-1,2C18.359,6.399,18.183,6.5,18,6.5z" fill="currentColor" />
	<path d="M15,5c-0.062,0-0.125-0.011-0.186-0.036c-0.257-0.103-0.381-0.394-0.278-0.65l1-2.5c0.102-0.256,0.393-0.382,0.649-0.279
		c0.257,0.103,0.381,0.394,0.278,0.65l-1,2.5C15.386,4.881,15.198,5,15,5z" fill="currentColor" />
	<path d="M20,8.5c-0.128,0-0.256-0.049-0.354-0.146c-0.195-0.195-0.195-0.512,0-0.707l1.5-1.5c0.195-0.195,0.512-0.195,0.707,0
		s0.195,0.512,0,0.707l-1.5,1.5C20.256,8.451,20.128,8.5,20,8.5z" fill="currentColor" />
	<path d="M21,11.5c-0.161,0-0.319-0.078-0.416-0.223c-0.153-0.23-0.091-0.54,0.139-0.693l1.5-1
		c0.228-0.153,0.539-0.092,0.693,0.139c0.153,0.23,0.091,0.54-0.139,0.693l-1.5,1C21.192,11.473,21.096,11.5,21,11.5z" fill="currentColor" />
	<path d="M21,14c-0.209,0-0.404-0.132-0.475-0.342c-0.087-0.262,0.055-0.545,0.316-0.632l1.5-0.5
		c0.263-0.086,0.545,0.054,0.633,0.316c0.087,0.262-0.055,0.545-0.316,0.632l-1.5,0.5C21.105,13.992,21.053,14,21,14z" fill="currentColor" />
	<path style="fill:none;stroke:#000000;stroke-linecap:round;stroke-linejoin:round;stroke-miterlimit:10;" d="M2,16"/>
</svg>
