<?xml version="1.0" encoding="UTF-8"?>
<svg width="24px" height="24px" viewBox="0 0 24 24" version="1.1" xmlns="http://www.w3.org/2000/svg" xmlns:xlink="http://www.w3.org/1999/xlink">
    <g id="tables_icon" stroke="none" stroke-width="1" fill="none" fill-rule="evenodd">
        <g>
            <rect id="Rectangle" x="0" y="0" width="24" height="24"></rect>
            <path d="M12,3 C8.0751,3 5,4.48275 5,6.375 L5,17.625 C5,19.51725 8.0751,21 12,21 C15.9249,21 19,19.51725 19,17.625 L19,6.375 C19,4.48275 15.9249,3 12,3 Z M18.3,13.875 C18.3,15.11625 15.7128,16.5 12,16.5 C8.2872,16.5 5.7,15.11625 5.7,13.875 L5.7,11.6115 C6.8221,12.738 9.1895,13.5 12,13.5 C14.8105,13.5 17.1779,12.738 18.3,11.6115 L18.3,13.875 Z M18.3,10.125 C18.3,11.36625 15.7128,12.75 12,12.75 C8.2872,12.75 5.7,11.36625 5.7,10.125 L5.7,7.8615 C6.8221,8.988 9.1895,9.75 12,9.75 C14.8105,9.75 17.1779,8.988 18.3,7.8615 L18.3,10.125 Z M12,3.75 C15.7128,3.75 18.3,5.13375 18.3,6.375 C18.3,7.61625 15.7128,9 12,9 C8.2872,9 5.7,7.61625 5.7,6.375 C5.7,5.13375 8.2872,3.75 12,3.75 Z M12,20.25 C8.2872,20.25 5.7,18.86625 5.7,17.625 L5.7,15.3615 C6.8221,16.488 9.1895,17.25 12,17.25 C14.8105,17.25 17.1779,16.488 18.3,15.3615 L18.3,17.625 C18.3,18.86625 15.7128,20.25 12,20.25 Z" id="Data-Drum" stroke="currentColor" stroke-width="0.2" fill="currentColor" fill-rule="nonzero"></path>
        </g>
    </g>
</svg>
