<svg viewBox="0 0 24 24" focusable="false" role="presentation">
  <path d="M20.5,6h-17C3.224,6,3,5.776,3,5.5v-1C3,3.122,4.121,2,5.5,2h2.691L8.5,1.382C8.927,0.529,9.783,0,10.736,0h2.527
    c0.953,0,1.81,0.529,2.236,1.382L15.809,2H18.5C19.879,2,21,3.122,21,4.5v1C21,5.776,20.776,6,20.5,6z M4,5h16V4.5
    C20,3.673,19.327,3,18.5,3h-3c-0.189,0-0.362-0.107-0.447-0.276l-0.447-0.895C14.35,1.318,13.836,1,13.264,1h-2.527
    C10.164,1,9.65,1.318,9.395,1.829L8.947,2.724C8.862,2.893,8.689,3,8.5,3h-3C4.673,3,4,3.673,4,4.5V5z" fill="currentColor" />
  <path d="M16.5,24h-9C5.57,24,4,22.43,4,20.5v-15C4,5.224,4.224,5,4.5,5h15C19.776,5,20,5.224,20,5.5v15C20,22.43,18.43,24,16.5,24
    z M5,6v14.5C5,21.878,6.121,23,7.5,23h9c1.379,0,2.5-1.122,2.5-2.5V6H5z" fill="currentColor" />
  <path d="M7.5,21C7.224,21,7,20.776,7,20.5v-12C7,8.224,7.224,8,7.5,8S8,8.224,8,8.5v12C8,20.776,7.776,21,7.5,21z" fill="currentColor" />
  <path d="M10.5,21c-0.276,0-0.5-0.224-0.5-0.5v-12C10,8.224,10.224,8,10.5,8S11,8.224,11,8.5v12C11,20.776,10.776,21,10.5,21z" fill="currentColor" />
  <path d="M13.5,21c-0.276,0-0.5-0.224-0.5-0.5v-12C13,8.224,13.224,8,13.5,8S14,8.224,14,8.5v12C14,20.776,13.776,21,13.5,21z" fill="currentColor" />
  <path d="M16.5,21c-0.276,0-0.5-0.224-0.5-0.5v-12C16,8.224,16.224,8,16.5,8S17,8.224,17,8.5v12C17,20.776,16.776,21,16.5,21z" fill="currentColor" />
</svg>
